<svg xmlns="http://www.w3.org/2000/svg" viewBox="0 0 100 100" id="Real-Estate-Building-Ad--Streamline-Pixel" height="100" width="100"><desc>Real Estate Building Ad Streamline Icon: https://streamlinehq.com</desc><title>real-estate-building-ad</title><g><path d="M95.25 61.90624999999999H57.15625v-9.53125h33.34375v-4.75h-4.78125v-4.78125h4.78125v-4.75H57.15625v-4.78125h-9.53125V23.8125h9.53125V0H4.78125v23.8125h9.53125v9.5H4.78125v57.15625H0V100h4.78125v-4.78125h4.75V100H19.0625v-4.78125h4.75V100h9.53125v-4.78125h4.75V100h9.53125v-4.78125h4.78125V100h4.75v-4.78125h4.75V100h9.53125v-4.78125h4.78125V100h9.5v-4.78125h4.78125V100H100v-9.53125h-4.75v-23.8125H100v-9.53125h-4.75Zm-19.03125 -19.0625h4.75v4.78125h-4.75Zm-9.53125 0h4.75v4.78125h-4.75Zm-9.53125 0h4.75v4.78125h-4.75ZM9.53125 19.03125V4.75h42.875v14.28125Zm33.34375 4.78125v9.5H19.0625V23.8125ZM28.59375 90.46875H19.0625v-19.0625h9.53125Zm23.8125 -23.8125h-14.3125v14.28125h14.3125v9.53125h-19.0625v-23.8125H14.3125v23.8125H9.53125V38.09375h42.875Zm-4.78125 4.75v4.78125h-4.75v-4.78125Zm42.875 19.0625H57.15625v-23.8125h33.34375Z" fill="#000000" stroke-width="3.125"></path><path d="M90.5 52.37500000000001h4.75v4.75h-4.75Z" fill="#000000" stroke-width="3.125"></path><path d="M76.21875 71.40625h9.5v9.53125h-9.5Z" fill="#000000" stroke-width="3.125"></path><path d="M61.90624999999999 71.40625h9.53125v9.53125h-9.53125Z" fill="#000000" stroke-width="3.125"></path><path d="M38.09375 52.37500000000001h9.53125v4.75h-9.53125Z" fill="#000000" stroke-width="3.125"></path><path d="M38.09375 42.84375h9.53125v4.78125h-9.53125Z" fill="#000000" stroke-width="3.125"></path><path d="M42.875 9.5h4.75v4.78125h-4.75Z" fill="#000000" stroke-width="3.125"></path><path d="M28.59375 9.5h4.75v4.78125H28.59375Z" fill="#000000" stroke-width="3.125"></path><path d="M14.3125 52.37500000000001h14.28125v4.75H14.3125Z" fill="#000000" stroke-width="3.125"></path><path d="M14.3125 42.84375h14.28125v4.78125H14.3125Z" fill="#000000" stroke-width="3.125"></path><path d="M14.3125 9.5H19.0625v4.78125H14.3125Z" fill="#000000" stroke-width="3.125"></path></g></svg>