<svg xmlns="http://www.w3.org/2000/svg" viewBox="0 0 100 100" id="Interface-Essential-Safari-Compass--Streamline-Pixel" height="100" width="100"><desc>Interface Essential Safari Compass Streamline Icon: https://streamlinehq.com</desc><title>interface-essential-safari-compass</title><g><path d="M95.21875 38.09375H100v23.8125h-4.78125Z" fill="#000000" stroke-width="3.125"></path><path d="M90.46875 61.90624999999999h4.75v9.53125h-4.75Z" fill="#000000" stroke-width="3.125"></path><path d="M90.46875 28.5625h4.75v9.53125h-4.75Z" fill="#000000" stroke-width="3.125"></path><path d="M85.71875 71.4375h4.75v9.5h-4.75Z" fill="#000000" stroke-width="3.125"></path><path d="M85.71875 38.09375h4.75v23.8125h-4.75Z" fill="#000000" stroke-width="3.125"></path><path d="M85.71875 19.0625h4.75v9.5h-4.75Z" fill="#000000" stroke-width="3.125"></path><path d="M80.9375 80.9375h4.78125v4.78125H80.9375Z" fill="#000000" stroke-width="3.125"></path><path d="M80.9375 61.90624999999999h4.78125v9.53125H80.9375Z" fill="#000000" stroke-width="3.125"></path><path d="M80.9375 28.5625h4.78125v9.53125H80.9375Z" fill="#000000" stroke-width="3.125"></path><path d="M80.9375 14.28125h4.78125V19.0625H80.9375Z" fill="#000000" stroke-width="3.125"></path><path d="M76.1875 71.4375h4.75v4.75h-4.75Z" fill="#000000" stroke-width="3.125"></path><path d="M76.1875 47.625h4.75v4.75h-4.75Z" fill="#000000" stroke-width="3.125"></path><path d="M76.1875 23.8125h4.75v4.75h-4.75Z" fill="#000000" stroke-width="3.125"></path><path d="M71.40625 85.71875h9.53125v4.75h-9.53125Z" fill="#000000" stroke-width="3.125"></path><path d="M71.40625 76.1875h4.78125v4.75h-4.78125Z" fill="#000000" stroke-width="3.125"></path><path d="M71.40625 19.0625h4.78125v4.75h-4.78125Z" fill="#000000" stroke-width="3.125"></path><path d="M71.40625 9.53125h9.53125v4.75h-9.53125Z" fill="#000000" stroke-width="3.125"></path><path d="M66.65625 66.65625h4.75v4.78125h-4.75Z" fill="#000000" stroke-width="3.125"></path><path d="M66.65625 33.34375h4.75v4.75h-4.75Z" fill="#000000" stroke-width="3.125"></path><path d="M61.90624999999999 90.46875h9.5v4.78125h-9.5Z" fill="#000000" stroke-width="3.125"></path><path d="M61.90624999999999 80.9375h9.5v4.78125h-9.5Z" fill="#000000" stroke-width="3.125"></path><path d="M61.90624999999999 14.28125h9.5V19.0625h-9.5Z" fill="#000000" stroke-width="3.125"></path><path d="M61.90624999999999 4.75h9.5v4.78125h-9.5Z" fill="#000000" stroke-width="3.125"></path><path d="m57.125 42.84375 -9.5 0 0 4.78125 -4.78125 0 0 14.28125 14.28125 0 0 -4.75 4.78125 0 0 -9.53125 4.75 0 0 -9.53125 -9.53125 0 0 4.75z" fill="#000000" stroke-width="3.125"></path><path d="M38.09375 95.25h23.8125V100h-23.8125Z" fill="#000000" stroke-width="3.125"></path><path d="M38.09375 85.71875h23.8125v4.75h-23.8125Z" fill="#000000" stroke-width="3.125"></path><path d="M47.625 76.1875h4.75v4.75h-4.75Z" fill="#000000" stroke-width="3.125"></path><path d="M47.625 19.0625h4.75v4.75h-4.75Z" fill="#000000" stroke-width="3.125"></path><path d="M38.09375 9.53125h23.8125v4.75h-23.8125Z" fill="#000000" stroke-width="3.125"></path><path d="M38.09375 0h23.8125v4.75h-23.8125Z" fill="#000000" stroke-width="3.125"></path><path d="M28.5625 90.46875h9.53125v4.78125H28.5625Z" fill="#000000" stroke-width="3.125"></path><path d="M28.5625 80.9375h9.53125v4.78125H28.5625Z" fill="#000000" stroke-width="3.125"></path><path d="M28.5625 14.28125h9.53125V19.0625H28.5625Z" fill="#000000" stroke-width="3.125"></path><path d="M28.5625 4.75h9.53125v4.78125H28.5625Z" fill="#000000" stroke-width="3.125"></path><path d="M28.5625 66.65625h4.75v4.78125H28.5625Z" fill="#000000" stroke-width="3.125"></path><path d="M28.5625 28.5625h4.75v4.78125H28.5625Z" fill="#000000" stroke-width="3.125"></path><path d="M19.03125 85.71875h9.53125v4.75H19.03125Z" fill="#000000" stroke-width="3.125"></path><path d="M23.8125 76.1875h4.75v4.75H23.8125Z" fill="#000000" stroke-width="3.125"></path><path d="M23.8125 19.0625h4.75v4.75H23.8125Z" fill="#000000" stroke-width="3.125"></path><path d="M19.03125 9.53125h9.53125v4.75H19.03125Z" fill="#000000" stroke-width="3.125"></path><path d="M19.03125 71.4375h4.78125v4.75H19.03125Z" fill="#000000" stroke-width="3.125"></path><path d="M19.03125 47.625h4.78125v4.75H19.03125Z" fill="#000000" stroke-width="3.125"></path><path d="M19.03125 23.8125h4.78125v4.75H19.03125Z" fill="#000000" stroke-width="3.125"></path><path d="M14.28125 80.9375h4.75v4.78125H14.28125Z" fill="#000000" stroke-width="3.125"></path><path d="M14.28125 61.90624999999999h4.75v9.53125H14.28125Z" fill="#000000" stroke-width="3.125"></path><path d="M14.28125 28.5625h4.75v9.53125H14.28125Z" fill="#000000" stroke-width="3.125"></path><path d="M14.28125 14.28125h4.75V19.0625H14.28125Z" fill="#000000" stroke-width="3.125"></path><path d="M9.53125 71.4375h4.75v9.5H9.53125Z" fill="#000000" stroke-width="3.125"></path><path d="M9.53125 38.09375h4.75v23.8125H9.53125Z" fill="#000000" stroke-width="3.125"></path><path d="M9.53125 19.0625h4.75v9.5H9.53125Z" fill="#000000" stroke-width="3.125"></path><path d="M4.75 61.90624999999999h4.78125v9.53125H4.75Z" fill="#000000" stroke-width="3.125"></path><path d="M4.75 28.5625h4.78125v9.53125H4.75Z" fill="#000000" stroke-width="3.125"></path><path d="M0 38.09375h4.75v23.8125H0Z" fill="#000000" stroke-width="3.125"></path></g></svg>