<svg xmlns="http://www.w3.org/2000/svg" viewBox="0 0 100 100" id="Interface-Essential-Crown--Streamline-Pixel" height="100" width="100"><desc>Interface Essential Crown Streamline Icon: https://streamlinehq.com</desc><title>interface-essential-crown</title><g><path d="M92.859375 28.578125h4.75v9.5h-4.75Z" fill="#000000" stroke-width="3.125"></path><path d="M83.328125 23.796875h9.53125v4.78125h-9.53125Z" fill="#000000" stroke-width="3.125"></path><path d="m83.328125 57.140625 4.78125 0 0 -14.28125 4.75 0 0 -4.78125 -9.53125 0 0 -9.5 -4.75 0 0 14.28125 4.75 0 0 14.28125z" fill="#000000" stroke-width="3.125"></path><path d="m78.578125 61.890625 -4.78125 0 0 4.78125 4.78125 0 0 4.75 -57.15625 0 0 -4.75 4.78125 0 0 -4.78125 -4.78125 0 0 -4.75 -4.75 0 0 23.8125 4.75 0 0 4.75 57.15625 0 0 -4.75 4.75 0 0 -23.8125 -4.75 0 0 4.75z" fill="#000000" stroke-width="3.125"></path><path d="M73.796875 42.859375h4.78125v4.75h-4.78125Z" fill="#000000" stroke-width="3.125"></path><path d="M69.046875 47.609375h4.75v4.78125h-4.75Z" fill="#000000" stroke-width="3.125"></path><path d="M64.296875 52.390625h4.75v4.75h-4.75Z" fill="#000000" stroke-width="3.125"></path><path d="M59.51562500000001 61.890625h9.53125v4.78125h-9.53125Z" fill="#000000" stroke-width="3.125"></path><path d="M59.51562500000001 42.859375h4.78125v9.53125h-4.78125Z" fill="#000000" stroke-width="3.125"></path><path d="M54.76562499999999 33.328125h4.75v9.53125h-4.75Z" fill="#000000" stroke-width="3.125"></path><path d="M54.76562499999999 19.046875h4.75v9.53125h-4.75Z" fill="#000000" stroke-width="3.125"></path><path d="M45.234375 28.578125h9.53125v4.75h-9.53125Z" fill="#000000" stroke-width="3.125"></path><path d="M45.234375 14.296875h9.53125v4.75h-9.53125Z" fill="#000000" stroke-width="3.125"></path><path d="M45.234375 57.140625h9.53125v9.53125h-9.53125Z" fill="#000000" stroke-width="3.125"></path><path d="M40.484375 33.328125h4.75v9.53125h-4.75Z" fill="#000000" stroke-width="3.125"></path><path d="M40.484375 19.046875h4.75v9.53125h-4.75Z" fill="#000000" stroke-width="3.125"></path><path d="M35.703125 42.859375h4.78125v9.53125h-4.78125Z" fill="#000000" stroke-width="3.125"></path><path d="M30.953124999999996 61.890625h9.53125v4.78125h-9.53125Z" fill="#000000" stroke-width="3.125"></path><path d="M30.953124999999996 52.390625h4.75v4.75h-4.75Z" fill="#000000" stroke-width="3.125"></path><path d="M26.203125 47.609375h4.75v4.78125h-4.75Z" fill="#000000" stroke-width="3.125"></path><path d="M21.421875 42.859375h4.78125v4.75h-4.78125Z" fill="#000000" stroke-width="3.125"></path><path d="m7.140625 38.078125 0 4.78125 4.78125 0 0 14.28125 4.75 0 0 -14.28125 4.75 0 0 -14.28125 -4.75 0 0 9.5 -9.53125 0z" fill="#000000" stroke-width="3.125"></path><path d="M7.140625 23.796875h9.53125v4.78125h-9.53125Z" fill="#000000" stroke-width="3.125"></path><path d="M2.390625 28.578125h4.75v9.5H2.390625Z" fill="#000000" stroke-width="3.125"></path></g></svg>