<svg xmlns="http://www.w3.org/2000/svg" viewBox="0 0 100 100" id="Money-Payments-Diamond--Streamline-Pixel" height="100" width="100"><desc>Money Payments Diamond Streamline Icon: https://streamlinehq.com</desc><title>money-payments-diamond</title><g><path d="M95.21875 90.46875H100v4.78125h-4.78125Z" fill="#000000" stroke-width="3.125"></path><path d="m95.21875 4.75 -4.75 0 0 4.78125 -4.75 0 0 4.75 4.75 0 0 4.78125 4.75 0 0 -4.78125 4.78125 0 0 -4.75 -4.78125 0 0 -4.78125z" fill="#000000" stroke-width="3.125"></path><path d="M90.46875 71.4375h4.75v4.75h-4.75Z" fill="#000000" stroke-width="3.125"></path><path d="M85.71875 76.1875h4.75v4.78125h-4.75Z" fill="#000000" stroke-width="3.125"></path><path d="M85.71875 66.65625h4.75v4.78125h-4.75Z" fill="#000000" stroke-width="3.125"></path><path d="M85.71875 47.625h4.75v4.75h-4.75Z" fill="#000000" stroke-width="3.125"></path><path d="M85.71875 28.5625h4.75v4.78125h-4.75Z" fill="#000000" stroke-width="3.125"></path><path d="M80.9375 71.4375h4.78125v4.75H80.9375Z" fill="#000000" stroke-width="3.125"></path><path d="M80.9375 52.37500000000001h4.78125v4.78125H80.9375Z" fill="#000000" stroke-width="3.125"></path><path d="M80.9375 23.8125h4.78125v4.75H80.9375Z" fill="#000000" stroke-width="3.125"></path><path d="M76.1875 57.15625h4.75v4.75h-4.75Z" fill="#000000" stroke-width="3.125"></path><path d="M76.1875 19.0625h4.75v4.75h-4.75Z" fill="#000000" stroke-width="3.125"></path><path d="m76.1875 100 0 -4.75 4.75 0 0 -4.78125 -4.75 0 0 -4.75 -4.78125 0 0 4.75 -4.75 0 0 4.78125 4.75 0 0 4.75 4.78125 0z" fill="#000000" stroke-width="3.125"></path><path d="M71.40625 61.90624999999999h4.78125v4.75h-4.78125Z" fill="#000000" stroke-width="3.125"></path><path d="M66.65625 66.65625h4.75v4.78125h-4.75Z" fill="#000000" stroke-width="3.125"></path><path d="M66.65625 47.625h4.75v4.75h-4.75Z" fill="#000000" stroke-width="3.125"></path><path d="M66.65625 28.5625h4.75v4.78125h-4.75Z" fill="#000000" stroke-width="3.125"></path><path d="M66.65625 4.75h4.75v4.78125h-4.75Z" fill="#000000" stroke-width="3.125"></path><path d="M61.90624999999999 71.4375h4.75v4.75h-4.75Z" fill="#000000" stroke-width="3.125"></path><path d="M61.90624999999999 52.37500000000001h4.75v9.53125h-4.75Z" fill="#000000" stroke-width="3.125"></path><path d="M61.90624999999999 23.8125h4.75v4.75h-4.75Z" fill="#000000" stroke-width="3.125"></path><path d="M57.125 61.90624999999999h4.78125v9.53125h-4.78125Z" fill="#000000" stroke-width="3.125"></path><path d="m57.125 71.4375 -4.75 0 0 14.28125 4.75 0 0 -4.75 4.78125 0 0 -4.78125 -4.78125 0 0 -4.75z" fill="#000000" stroke-width="3.125"></path><path d="M52.37500000000001 0h4.75v4.75h-4.75Z" fill="#000000" stroke-width="3.125"></path><path d="M42.84375 85.71875h9.53125v4.75h-9.53125Z" fill="#000000" stroke-width="3.125"></path><path d="m42.84375 71.4375 -4.75 0 0 4.75 -4.78125 0 0 4.78125 4.78125 0 0 4.75 4.75 0 0 -14.28125z" fill="#000000" stroke-width="3.125"></path><path d="M33.3125 61.90624999999999h4.78125v9.53125h-4.78125Z" fill="#000000" stroke-width="3.125"></path><path d="M28.5625 71.4375h4.75v4.75H28.5625Z" fill="#000000" stroke-width="3.125"></path><path d="M28.5625 52.37500000000001h4.75v9.53125H28.5625Z" fill="#000000" stroke-width="3.125"></path><path d="M28.5625 23.8125h4.75v4.75H28.5625Z" fill="#000000" stroke-width="3.125"></path><path d="M28.5625 4.75h4.75v4.78125H28.5625Z" fill="#000000" stroke-width="3.125"></path><path d="M23.8125 85.71875h4.75v4.75H23.8125Z" fill="#000000" stroke-width="3.125"></path><path d="M23.8125 66.65625h4.75v4.78125H23.8125Z" fill="#000000" stroke-width="3.125"></path><path d="M23.8125 47.625h4.75v4.75H23.8125Z" fill="#000000" stroke-width="3.125"></path><path d="M23.8125 28.5625h4.75v4.78125H23.8125Z" fill="#000000" stroke-width="3.125"></path><path d="m33.3125 19.0625 0 4.75 4.78125 0 0 -4.75 19.03125 0 0 4.75 4.78125 0 0 -4.75 14.28125 0 0 -4.78125 -57.15625 0 0 4.78125 14.28125 0z" fill="#000000" stroke-width="3.125"></path><path d="M19.03125 61.90624999999999h4.78125v4.75H19.03125Z" fill="#000000" stroke-width="3.125"></path><path d="M14.28125 57.15625h4.75v4.75H14.28125Z" fill="#000000" stroke-width="3.125"></path><path d="M14.28125 19.0625h4.75v4.75H14.28125Z" fill="#000000" stroke-width="3.125"></path><path d="M9.5 76.1875h4.78125v4.78125H9.5Z" fill="#000000" stroke-width="3.125"></path><path d="M9.5 52.37500000000001h4.78125v4.78125H9.5Z" fill="#000000" stroke-width="3.125"></path><path d="M9.5 23.8125h4.78125v4.75H9.5Z" fill="#000000" stroke-width="3.125"></path><path d="M4.75 95.25h4.75V100H4.75Z" fill="#000000" stroke-width="3.125"></path><path d="M4.75 80.96875h4.75v4.75H4.75Z" fill="#000000" stroke-width="3.125"></path><path d="M4.75 71.4375h4.75v4.75H4.75Z" fill="#000000" stroke-width="3.125"></path><path d="M4.75 47.625h4.75v4.75H4.75Z" fill="#000000" stroke-width="3.125"></path><path d="m4.75 42.84375 14.28125 0 0 4.78125 4.78125 0 0 -4.78125 47.59375 0 0 4.78125 4.78125 0 0 -4.78125 14.28125 0 0 4.78125 4.75 0 0 -14.28125 -4.75 0 0 4.75 -14.28125 0 0 -4.75 -4.78125 0 0 4.75 -47.59375 0 0 -4.75 -4.78125 0 0 4.75 -14.28125 0 0 -4.75 -4.75 0 0 14.28125 4.75 0 0 -4.78125z" fill="#000000" stroke-width="3.125"></path><path d="M4.75 28.5625h4.75v4.78125H4.75Z" fill="#000000" stroke-width="3.125"></path><path d="m4.75 14.28125 4.75 0 0 -4.75 4.78125 0 0 -4.78125 -4.78125 0 0 -4.75 -4.75 0 0 4.75 -4.75 0 0 4.78125 4.75 0 0 4.75z" fill="#000000" stroke-width="3.125"></path><path d="M0 76.1875h4.75v4.78125H0Z" fill="#000000" stroke-width="3.125"></path></g></svg>