<svg xmlns="http://www.w3.org/2000/svg" viewBox="0 0 100 100" id="Business-Prodect-Diamond--Streamline-Pixel" height="100" width="100"><desc>Business Prodect Diamond Streamline Icon: https://streamlinehq.com</desc><title>business-prodect-diamond</title><g><path d="M95.21875 66.65625H100v4.78125h-4.78125Z" fill="#000000" stroke-width="3.125"></path><path d="M95.21875 42.875h-19.03125v-19.0625h4.75V19.0625h-4.75V14.28125H23.8125V19.0625H19.03125v4.75H14.28125v4.75H9.53125v4.78125H4.75v4.75H0v14.28125h4.75v-4.75h23.8125v9.53125h4.75v9.5h4.78125v9.53125h4.75v9.53125h4.78125V47.625h19.03125v9.53125h-4.75v9.5h-4.78125v9.53125h-4.75v9.53125h-4.75v4.75h-4.78125v4.78125h4.78125V100h4.75v-4.75h4.75v-4.78125h4.78125v-4.75h4.75v-4.75h4.78125v-4.78125h4.75v-4.75h4.75v-4.78125h4.78125v-4.75h4.75v-4.75h4.75v-4.78125H100v-14.28125h-4.78125Zm-28.5625 0H33.3125v-4.78125H28.5625V19.0625h19.0625v4.75h4.75v4.75h4.75v4.78125h4.78125v4.75h4.75Z" fill="#000000" stroke-width="3.125"></path><path d="M90.46875 80.96875h4.75v4.75h-4.75Z" fill="#000000" stroke-width="3.125"></path><path d="M90.46875 33.34375h4.75v4.75h-4.75Z" fill="#000000" stroke-width="3.125"></path><path d="M85.71875 85.71875h4.75v4.75h-4.75Z" fill="#000000" stroke-width="3.125"></path><path d="M85.71875 76.1875h4.75v4.78125h-4.75Z" fill="#000000" stroke-width="3.125"></path><path d="M85.71875 28.5625h4.75v4.78125h-4.75Z" fill="#000000" stroke-width="3.125"></path><path d="m85.71875 9.53125 -4.78125 0 0 4.75 4.78125 0 0 4.78125 4.75 0 0 -4.78125 4.75 0 0 -4.75 -4.75 0 0 -4.78125 -4.75 0 0 4.78125z" fill="#000000" stroke-width="3.125"></path><path d="M80.9375 80.96875h4.78125v4.75H80.9375Z" fill="#000000" stroke-width="3.125"></path><path d="M80.9375 23.8125h4.78125v4.75H80.9375Z" fill="#000000" stroke-width="3.125"></path><path d="M71.4375 95.25h4.75V100h-4.75Z" fill="#000000" stroke-width="3.125"></path><path d="M71.4375 0h4.75v4.75h-4.75Z" fill="#000000" stroke-width="3.125"></path><path d="M42.84375 23.8125h4.78125v4.75h-4.78125Z" fill="#000000" stroke-width="3.125"></path><path d="M42.84375 4.75h4.78125v4.78125h-4.78125Z" fill="#000000" stroke-width="3.125"></path><path d="M38.09375 85.71875h4.75v4.75h-4.75Z" fill="#000000" stroke-width="3.125"></path><path d="M38.09375 28.5625h4.75v4.78125h-4.75Z" fill="#000000" stroke-width="3.125"></path><path d="M33.3125 80.96875h4.78125v4.75h-4.78125Z" fill="#000000" stroke-width="3.125"></path><path d="M33.3125 33.34375h4.78125v4.75h-4.78125Z" fill="#000000" stroke-width="3.125"></path><path d="M28.5625 90.46875h4.75v4.78125H28.5625Z" fill="#000000" stroke-width="3.125"></path><path d="M28.5625 76.1875h4.75v4.78125H28.5625Z" fill="#000000" stroke-width="3.125"></path><path d="M23.8125 71.4375h4.75v4.75H23.8125Z" fill="#000000" stroke-width="3.125"></path><path d="M19.03125 66.65625h4.78125v4.78125H19.03125Z" fill="#000000" stroke-width="3.125"></path><path d="M14.28125 61.90624999999999h4.75v4.75H14.28125Z" fill="#000000" stroke-width="3.125"></path><path d="M14.28125 9.53125h4.75v4.75H14.28125Z" fill="#000000" stroke-width="3.125"></path><path d="m9.53125 76.1875 0 4.78125 -4.78125 0 0 4.75 4.78125 0 0 4.75 4.75 0 0 -4.75 4.75 0 0 -4.75 -4.75 0 0 -4.78125 -4.75 0z" fill="#000000" stroke-width="3.125"></path><path d="M9.53125 57.15625h4.75v4.75H9.53125Z" fill="#000000" stroke-width="3.125"></path><path d="M9.53125 14.28125h4.75V19.0625H9.53125Z" fill="#000000" stroke-width="3.125"></path><path d="M9.53125 4.75h4.75v4.78125H9.53125Z" fill="#000000" stroke-width="3.125"></path><path d="M4.75 52.37500000000001h4.78125v4.78125H4.75Z" fill="#000000" stroke-width="3.125"></path><path d="M4.75 9.53125h4.78125v4.75H4.75Z" fill="#000000" stroke-width="3.125"></path><path d="M0 66.65625h4.75v4.78125H0Z" fill="#000000" stroke-width="3.125"></path></g></svg>