<svg xmlns="http://www.w3.org/2000/svg" viewBox="0 0 100 100" id="Interface-Essential-Edit-Fill--Streamline-Pixel" height="100" width="100"><desc>Interface Essential Edit Fill Streamline Icon: https://streamlinehq.com</desc><title>interface-essential-edit-fill</title><g><path d="M95.25 38.09375H100v52.37500000000001h-4.75Z" fill="#000000" stroke-width="3.125"></path><path d="M95.25 9.53125H100v14.28125h-4.75Z" fill="#000000" stroke-width="3.125"></path><path d="M90.46875 90.46875h4.78125v4.78125h-4.78125Z" fill="#000000" stroke-width="3.125"></path><path d="M90.46875 23.8125h4.78125v4.75h-4.78125Z" fill="#000000" stroke-width="3.125"></path><path d="M90.46875 4.75h4.78125v4.78125h-4.78125Z" fill="#000000" stroke-width="3.125"></path><path d="M85.71875 28.5625h4.75v4.78125h-4.75Z" fill="#000000" stroke-width="3.125"></path><path d="M85.71875 19.0625h4.75v4.75h-4.75Z" fill="#000000" stroke-width="3.125"></path><path d="M9.53125 95.25h80.9375V100H9.53125Z" fill="#000000" stroke-width="3.125"></path><path d="M80.96875 33.34375h4.75v4.75h-4.75Z" fill="#000000" stroke-width="3.125"></path><path d="M80.96875 14.28125h4.75V19.0625h-4.75Z" fill="#000000" stroke-width="3.125"></path><path d="M76.1875 0h14.28125v4.75h-14.28125Z" fill="#000000" stroke-width="3.125"></path><path d="M76.1875 38.09375h4.78125v4.75h-4.78125Z" fill="#000000" stroke-width="3.125"></path><path d="M76.1875 19.0625h4.78125v4.75h-4.78125Z" fill="#000000" stroke-width="3.125"></path><path d="M76.1875 9.53125h4.78125v4.75h-4.78125Z" fill="#000000" stroke-width="3.125"></path><path d="M71.4375 42.84375h4.75v4.78125h-4.75Z" fill="#000000" stroke-width="3.125"></path><path d="M71.4375 23.8125h4.75v4.75h-4.75Z" fill="#000000" stroke-width="3.125"></path><path d="M71.4375 4.75h4.75v4.78125h-4.75Z" fill="#000000" stroke-width="3.125"></path><path d="M66.65625 47.625h4.78125v4.75h-4.78125Z" fill="#000000" stroke-width="3.125"></path><path d="M66.65625 28.5625h4.78125v4.78125h-4.78125Z" fill="#000000" stroke-width="3.125"></path><path d="M66.65625 9.53125h4.78125v4.75h-4.78125Z" fill="#000000" stroke-width="3.125"></path><path d="M61.90624999999999 52.37500000000001h4.75v4.78125h-4.75Z" fill="#000000" stroke-width="3.125"></path><path d="M61.90624999999999 33.34375h4.75v4.75h-4.75Z" fill="#000000" stroke-width="3.125"></path><path d="M61.90624999999999 14.28125h4.75V19.0625h-4.75Z" fill="#000000" stroke-width="3.125"></path><path d="M57.15625 47.625h4.75v4.75h-4.75Z" fill="#000000" stroke-width="3.125"></path><path d="M57.15625 38.09375h4.75v4.75h-4.75Z" fill="#000000" stroke-width="3.125"></path><path d="M57.15625 19.0625h4.75v4.75h-4.75Z" fill="#000000" stroke-width="3.125"></path><path d="m52.37500000000001 52.37500000000001 -4.75 0 0 -4.75 -4.78125 0 0 -9.53125 -4.75 0 0 23.8125 23.8125 0 0 -4.75 -9.53125 0 0 -4.78125z" fill="#000000" stroke-width="3.125"></path><path d="M52.37500000000001 42.84375h4.78125v4.78125h-4.78125Z" fill="#000000" stroke-width="3.125"></path><path d="M52.37500000000001 23.8125h4.78125v4.75h-4.78125Z" fill="#000000" stroke-width="3.125"></path><path d="M47.625 38.09375h4.75v4.75h-4.75Z" fill="#000000" stroke-width="3.125"></path><path d="M47.625 28.5625h4.75v4.78125h-4.75Z" fill="#000000" stroke-width="3.125"></path><path d="M42.84375 33.34375h4.78125v4.75h-4.78125Z" fill="#000000" stroke-width="3.125"></path><path d="M9.53125 4.75h47.625v4.78125H9.53125Z" fill="#000000" stroke-width="3.125"></path><path d="M4.75 90.46875h4.78125v4.78125H4.75Z" fill="#000000" stroke-width="3.125"></path><path d="M4.75 9.53125h4.78125v4.75H4.75Z" fill="#000000" stroke-width="3.125"></path><path d="M0 14.28125h4.75v76.1875H0Z" fill="#000000" stroke-width="3.125"></path></g></svg>