<svg xmlns="http://www.w3.org/2000/svg" viewBox="0 0 100 100" id="Real-Estate-Building-Factory--Streamline-Pixel" height="100" width="100"><desc>Real Estate Building Factory Streamline Icon: https://streamlinehq.com</desc><title>real-estate-building-factory</title><g><path d="M71.4375 61.90624999999999V19.03125h-4.75V14.28125h-14.28125v4.75h-4.78125v42.875h-9.53125V23.8125h-4.75V19.03125H19.0625v4.78125H14.3125v38.09375H0V100h100V61.90624999999999ZM52.40625 28.5625h14.28125v4.75h-14.28125Zm0 9.53125h14.28125v23.8125h-14.28125ZM19.0625 33.3125h14.28125v4.78125H19.0625Zm0 9.53125h14.28125v19.0625H19.0625Zm4.75 52.37500000000001H4.78125v-28.5625h19.03125Zm71.4375 0H28.59375v-28.5625h66.65625Z" fill="#000000" stroke-width="3.125"></path><path d="M90.5 71.40625h-19.0625v19.0625h19.0625Zm-4.78125 9.53125h-4.75v4.78125h-4.75v-9.53125h9.5Z" fill="#000000" stroke-width="3.125"></path><path d="M76.21875 0h4.75v4.75h-4.75Z" fill="#000000" stroke-width="3.125"></path><path d="M71.4375 4.75h4.78125v4.75h-4.78125Z" fill="#000000" stroke-width="3.125"></path><path d="M61.90624999999999 0h9.53125v4.75h-9.53125Z" fill="#000000" stroke-width="3.125"></path><path d="M66.6875 71.40625H33.34375v19.0625h33.34375Zm-19.0625 9.53125h-4.75v4.78125h-4.78125v-9.53125h9.53125Zm14.28125 0h-4.75v4.78125h-4.75v-9.53125h9.5Z" fill="#000000" stroke-width="3.125"></path><path d="M57.15625 4.75h4.75v4.75h-4.75Z" fill="#000000" stroke-width="3.125"></path><path d="M42.875 4.75h4.75v4.75h-4.75Z" fill="#000000" stroke-width="3.125"></path><path d="M33.34375 9.5h9.53125v4.78125h-9.53125Z" fill="#000000" stroke-width="3.125"></path><path d="M28.59375 4.75h4.75v4.75H28.59375Z" fill="#000000" stroke-width="3.125"></path><path d="M23.8125 9.5h4.78125v4.78125H23.8125Z" fill="#000000" stroke-width="3.125"></path></g></svg>