<svg xmlns="http://www.w3.org/2000/svg" viewBox="0 0 100 100" id="Business-Products-Factory--Streamline-Pixel" height="100" width="100"><desc>Business Products Factory Streamline Icon: https://streamlinehq.com</desc><title>business-products-factory</title><g><path d="M95.21875 28.578125H100v66.65625h-4.78125Z" fill="#000000" stroke-width="3.125"></path><path d="m95.21875 4.765625 -14.28125 0 0 23.8125 4.78125 0 0 -19.0625 4.75 0 0 19.0625 4.75 0 0 -23.8125z" fill="#000000" stroke-width="3.125"></path><path d="M85.71875 76.203125h4.75v4.75h-4.75Z" fill="#000000" stroke-width="3.125"></path><path d="M85.71875 57.140625h4.75v4.75h-4.75Z" fill="#000000" stroke-width="3.125"></path><path d="M85.71875 38.109375h4.75v4.75h-4.75Z" fill="#000000" stroke-width="3.125"></path><path d="m76.1875 38.109375 -9.53125 0 0 4.75 9.53125 0 0 52.37500000000001 4.75 0 0 -66.65625 -4.75 0 0 9.53125z" fill="#000000" stroke-width="3.125"></path><path d="M66.65625 9.515625h4.78125v4.78125h-4.78125Z" fill="#000000" stroke-width="3.125"></path><path d="M61.90624999999999 57.140625h9.53125v9.53125h-9.53125Z" fill="#000000" stroke-width="3.125"></path><path d="M57.125 4.765625h9.53125v4.75h-9.53125Z" fill="#000000" stroke-width="3.125"></path><path d="M57.125 42.859375h9.53125v4.75h-9.53125Z" fill="#000000" stroke-width="3.125"></path><path d="M47.625 76.203125h9.5v9.5h-9.5Z" fill="#000000" stroke-width="3.125"></path><path d="M47.625 47.609375h9.5v4.78125h-9.5Z" fill="#000000" stroke-width="3.125"></path><path d="M47.625 9.515625h9.5v4.78125h-9.5Z" fill="#000000" stroke-width="3.125"></path><path d="M42.84375 4.765625h4.78125v4.75h-4.78125Z" fill="#000000" stroke-width="3.125"></path><path d="m42.84375 38.109375 -9.53125 0 0 4.75 4.78125 0 0 52.37500000000001 4.75 0 0 -38.09375 4.78125 0 0 -4.75 -4.78125 0 0 -14.28125z" fill="#000000" stroke-width="3.125"></path><path d="M28.5625 19.046875h4.75v4.75H28.5625Z" fill="#000000" stroke-width="3.125"></path><path d="M23.8125 57.140625h9.5v9.53125H23.8125Z" fill="#000000" stroke-width="3.125"></path><path d="M23.8125 42.859375h9.5v4.75H23.8125Z" fill="#000000" stroke-width="3.125"></path><path d="M19.03125 14.296875h9.53125v4.75H19.03125Z" fill="#000000" stroke-width="3.125"></path><path d="M14.28125 47.609375h9.53125v4.78125H14.28125Z" fill="#000000" stroke-width="3.125"></path><path d="M9.53125 76.203125h9.5v9.5H9.53125Z" fill="#000000" stroke-width="3.125"></path><path d="M9.53125 19.046875h9.5v4.75H9.53125Z" fill="#000000" stroke-width="3.125"></path><path d="M4.75 52.390625h9.53125v4.75H4.75Z" fill="#000000" stroke-width="3.125"></path><path d="M4.75 14.296875h4.78125v4.75H4.75Z" fill="#000000" stroke-width="3.125"></path><path d="M0 57.140625h4.75v38.09375H0Z" fill="#000000" stroke-width="3.125"></path></g></svg>