<svg xmlns="http://www.w3.org/2000/svg" viewBox="0 0 100 100" id="Computer-Old-Electronics--Streamline-Pixel" height="100" width="100"><desc>Computer Old Electronics Streamline Icon: https://streamlinehq.com</desc><title>computer-old-electronics</title><g><path d="M95.234375 71.4375h-14.28125v-4.78125h4.75v-4.75H14.296875v4.75H19.0625v4.78125H4.765625V100h90.46875Zm-71.4375 -4.78125h52.37500000000001v4.78125H23.796875Zm66.6875 28.59375H9.515625v-19.0625h80.96875Z" fill="#000000" stroke-width="3.125"></path><path d="M85.703125 4.75h4.78125v57.15625h-4.78125Z" fill="#000000" stroke-width="3.125"></path><path d="M57.140625 80.9375h23.8125v4.78125h-23.8125Z" fill="#000000" stroke-width="3.125"></path><path d="M57.140625 33.34375h4.75v4.75h-4.75Z" fill="#000000" stroke-width="3.125"></path><path d="M57.140625 23.8125h4.75v4.75h-4.75Z" fill="#000000" stroke-width="3.125"></path><path d="M42.859375 38.09375h14.28125v4.75h-14.28125Z" fill="#000000" stroke-width="3.125"></path><path d="M38.078125 33.34375h4.78125v4.75h-4.78125Z" fill="#000000" stroke-width="3.125"></path><path d="M38.078125 23.8125h4.78125v4.75h-4.78125Z" fill="#000000" stroke-width="3.125"></path><path d="M19.0625 57.15625h61.90624999999999V9.53125H19.0625ZM23.796875 14.28125h52.37500000000001v38.09375H23.796875Z" fill="#000000" stroke-width="3.125"></path><path d="M19.046875 80.9375h9.53125v9.53125h-9.53125Z" fill="#000000" stroke-width="3.125"></path><path d="M14.296875 0h71.40625v4.75H14.296875Z" fill="#000000" stroke-width="3.125"></path><path d="M9.515625 4.75h4.78125v57.15625h-4.78125Z" fill="#000000" stroke-width="3.125"></path></g></svg>