<svg xmlns="http://www.w3.org/2000/svg" viewBox="0 0 100 100" id="Interface-Essential-Heart-Favorite--Streamline-Pixel" height="100" width="100"><desc>Interface Essential Heart Favorite Streamline Icon: https://streamlinehq.com</desc><title>interface-essential-heart-favorite</title><g><path d="M95.21875 26.187500000000004H100V50h-4.78125Z" fill="#000000" stroke-width="3.125"></path><path d="M90.46875 50h4.75v9.53125h-4.75Z" fill="#000000" stroke-width="3.125"></path><path d="M90.46875 21.4375h4.75v4.75h-4.75Z" fill="#000000" stroke-width="3.125"></path><path d="M85.71875 59.53125h4.75v4.75h-4.75Z" fill="#000000" stroke-width="3.125"></path><path d="M85.71875 30.9375h4.75v9.53125h-4.75Z" fill="#000000" stroke-width="3.125"></path><path d="M85.71875 16.65625h4.75v4.78125h-4.75Z" fill="#000000" stroke-width="3.125"></path><path d="M80.9375 26.187500000000004h4.78125V30.9375H80.9375Z" fill="#000000" stroke-width="3.125"></path><path d="M76.1875 64.28125h9.53125v4.75h-9.53125Z" fill="#000000" stroke-width="3.125"></path><path d="M71.40625 21.4375h9.53125v4.75h-9.53125Z" fill="#000000" stroke-width="3.125"></path><path d="M66.65625 69.03125h9.53125v4.78125h-9.53125Z" fill="#000000" stroke-width="3.125"></path><path d="M61.90624999999999 11.90625h23.8125v4.75h-23.8125Z" fill="#000000" stroke-width="3.125"></path><path d="M57.125 73.8125h9.53125v4.75h-9.53125Z" fill="#000000" stroke-width="3.125"></path><path d="M57.125 16.65625h4.78125v4.78125h-4.78125Z" fill="#000000" stroke-width="3.125"></path><path d="M52.37500000000001 78.5625h4.75v4.75h-4.75Z" fill="#000000" stroke-width="3.125"></path><path d="M52.37500000000001 21.4375h4.75v4.75h-4.75Z" fill="#000000" stroke-width="3.125"></path><path d="M47.625 83.3125h4.75v4.78125h-4.75Z" fill="#000000" stroke-width="3.125"></path><path d="M47.625 26.187500000000004h4.75V30.9375h-4.75Z" fill="#000000" stroke-width="3.125"></path><path d="M42.84375 78.5625h4.78125v4.75h-4.78125Z" fill="#000000" stroke-width="3.125"></path><path d="M42.84375 21.4375h4.78125v4.75h-4.78125Z" fill="#000000" stroke-width="3.125"></path><path d="M33.3125 73.8125h9.53125v4.75h-9.53125Z" fill="#000000" stroke-width="3.125"></path><path d="M38.09375 16.65625h4.75v4.78125h-4.75Z" fill="#000000" stroke-width="3.125"></path><path d="M23.8125 69.03125h9.5v4.78125H23.8125Z" fill="#000000" stroke-width="3.125"></path><path d="M14.28125 64.28125h9.53125v4.75H14.28125Z" fill="#000000" stroke-width="3.125"></path><path d="M14.28125 11.90625h23.8125v4.75H14.28125Z" fill="#000000" stroke-width="3.125"></path><path d="M9.53125 59.53125h4.75v4.75H9.53125Z" fill="#000000" stroke-width="3.125"></path><path d="M9.53125 16.65625h4.75v4.78125H9.53125Z" fill="#000000" stroke-width="3.125"></path><path d="M4.75 50h4.78125v9.53125H4.75Z" fill="#000000" stroke-width="3.125"></path><path d="M4.75 21.4375h4.78125v4.75H4.75Z" fill="#000000" stroke-width="3.125"></path><path d="M0 26.187500000000004h4.75V50H0Z" fill="#000000" stroke-width="3.125"></path></g></svg>