<svg xmlns="http://www.w3.org/2000/svg" viewBox="0 0 100 100" id="Interface-Essential-Hyperlink--Streamline-Pixel" height="100" width="100"><desc>Interface Essential Hyperlink Streamline Icon: https://streamlinehq.com</desc><title>interface-essential-hyperlink</title><g><path d="M95.25 38.109375H100v23.8125h-4.75Z" fill="#000000" stroke-width="3.125"></path><path d="M90.46875 61.92187500000001h4.78125v4.75h-4.78125Z" fill="#000000" stroke-width="3.125"></path><path d="M90.46875 33.328125h4.78125v4.78125h-4.78125Z" fill="#000000" stroke-width="3.125"></path><path d="M85.71875 42.859375h4.75v14.28125h-4.75Z" fill="#000000" stroke-width="3.125"></path><path d="M61.90624999999999 66.671875h28.5625v4.75h-28.5625Z" fill="#000000" stroke-width="3.125"></path><path d="M61.90624999999999 28.578125h28.5625v4.75h-28.5625Z" fill="#000000" stroke-width="3.125"></path><path d="M57.15625 61.92187500000001h4.75v4.75h-4.75Z" fill="#000000" stroke-width="3.125"></path><path d="m66.6875 57.140625 0 4.78125 19.03125 0 0 -4.78125 -14.28125 0 0 -4.75 4.75 0 0 -4.78125 -4.75 0 0 -4.75 14.28125 0 0 -4.75 -19.03125 0 0 4.75 -9.53125 0 0 -4.75 -4.78125 0 0 4.75 -4.75 0 0 -4.75 -4.75 0 0 4.75 -9.53125 0 0 -4.75 -19.0625 0 0 4.75 14.3125 0 0 4.75 -4.78125 0 0 4.78125 4.78125 0 0 4.75 -14.3125 0 0 4.78125 19.0625 0 0 -4.78125 9.53125 0 0 4.78125 4.75 0 0 -4.78125 4.75 0 0 4.78125 4.78125 0 0 -4.78125 9.53125 0z" fill="#000000" stroke-width="3.125"></path><path d="M57.15625 33.328125h4.75v4.78125h-4.75Z" fill="#000000" stroke-width="3.125"></path><path d="M38.09375 61.92187500000001h4.78125v4.75h-4.78125Z" fill="#000000" stroke-width="3.125"></path><path d="M38.09375 33.328125h4.78125v4.78125h-4.78125Z" fill="#000000" stroke-width="3.125"></path><path d="M9.53125 66.671875h28.5625v4.75H9.53125Z" fill="#000000" stroke-width="3.125"></path><path d="M9.53125 28.578125h28.5625v4.75H9.53125Z" fill="#000000" stroke-width="3.125"></path><path d="M9.53125 42.859375h4.75v14.28125H9.53125Z" fill="#000000" stroke-width="3.125"></path><path d="M4.78125 61.92187500000001h4.75v4.75H4.78125Z" fill="#000000" stroke-width="3.125"></path><path d="M4.78125 33.328125h4.75v4.78125H4.78125Z" fill="#000000" stroke-width="3.125"></path><path d="M0 38.109375h4.78125v23.8125H0Z" fill="#000000" stroke-width="3.125"></path></g></svg>