<svg xmlns="http://www.w3.org/2000/svg" viewBox="0 0 100 100" id="Logo-Linkedin--Streamline-Pixel" height="100" width="100"><desc>Logo Linkedin Streamline Icon: https://streamlinehq.com</desc><title>logo-linkedin</title><g><path d="M95.21875 9.53125H100v80.9375h-4.78125Z" fill="#000000" stroke-width="3.125"></path><path d="M90.46875 90.46875h4.75v4.78125h-4.75Z" fill="#000000" stroke-width="3.125"></path><path d="M90.46875 4.75h4.75v4.78125h-4.75Z" fill="#000000" stroke-width="3.125"></path><path d="M85.6875 14.28125h4.78125v71.4375h-4.78125Z" fill="#000000" stroke-width="3.125"></path><path d="M9.5 95.25h80.96875V100H9.5Z" fill="#000000" stroke-width="3.125"></path><path d="M14.28125 85.71875h71.40625v4.75H14.28125Z" fill="#000000" stroke-width="3.125"></path><path d="m71.40625 47.625 -4.75 0 0 -4.78125 -9.53125 0 0 4.78125 -4.75 0 0 -4.78125 -9.53125 0 0 28.59375 9.53125 0 0 -14.28125 4.75 0 0 -4.78125 4.78125 0 0 4.78125 4.75 0 0 14.28125 9.53125 0 0 -19.0625 -4.78125 0 0 -4.75z" fill="#000000" stroke-width="3.125"></path><path d="M23.78125 42.84375h9.53125v28.59375H23.78125Z" fill="#000000" stroke-width="3.125"></path><path d="M23.78125 28.5625h9.53125v9.53125H23.78125Z" fill="#000000" stroke-width="3.125"></path><path d="M14.28125 9.53125h71.40625v4.75H14.28125Z" fill="#000000" stroke-width="3.125"></path><path d="M9.5 0h80.96875v4.75H9.5Z" fill="#000000" stroke-width="3.125"></path><path d="M9.5 14.28125h4.78125v71.4375H9.5Z" fill="#000000" stroke-width="3.125"></path><path d="M4.75 90.46875h4.75v4.78125H4.75Z" fill="#000000" stroke-width="3.125"></path><path d="M4.75 4.75h4.75v4.78125H4.75Z" fill="#000000" stroke-width="3.125"></path><path d="M0 9.53125h4.75v80.9375H0Z" fill="#000000" stroke-width="3.125"></path></g></svg>