<svg xmlns="http://www.w3.org/2000/svg" viewBox="0 0 100 100" id="Interface-Essential-Link--Streamline-Pixel" height="100" width="100"><desc>Interface Essential Link Streamline Icon: https://streamlinehq.com</desc><title>interface-essential-link</title><g><path d="M88.109375 64.296875h4.75v19.03125h-4.75Z" fill="#000000" stroke-width="3.125"></path><path d="M83.328125 83.328125h4.78125v4.78125h-4.78125Z" fill="#000000" stroke-width="3.125"></path><path d="M83.328125 59.546875h4.78125v4.75h-4.78125Z" fill="#000000" stroke-width="3.125"></path><path d="M78.578125 54.76562499999999h4.75v4.78125h-4.75Z" fill="#000000" stroke-width="3.125"></path><path d="M64.296875 88.109375h19.03125v4.75h-19.03125Z" fill="#000000" stroke-width="3.125"></path><path d="M73.796875 50.015625h4.78125v4.75h-4.78125Z" fill="#000000" stroke-width="3.125"></path><path d="M59.51562500000001 45.234375h14.28125v4.78125h-14.28125Z" fill="#000000" stroke-width="3.125"></path><path d="M59.51562500000001 83.328125h4.78125v4.78125h-4.78125Z" fill="#000000" stroke-width="3.125"></path><path d="M54.76562499999999 78.578125h4.75v4.75h-4.75Z" fill="#000000" stroke-width="3.125"></path><path d="m45.234375 35.734375 -9.53125 0 0 9.5 4.78125 0 0 4.78125 4.75 0 0 4.75 4.78125 0 0 4.78125 4.75 0 0 4.75 9.53125 0 0 -9.53125 -4.78125 0 0 -4.75 -4.75 0 0 -4.78125 -4.75 0 0 -4.75 -4.78125 0 0 -4.75z" fill="#000000" stroke-width="3.125"></path><path d="M50.015625 73.828125h4.75v4.75h-4.75Z" fill="#000000" stroke-width="3.125"></path><path d="M50.015625 26.203125h4.75v14.28125h-4.75Z" fill="#000000" stroke-width="3.125"></path><path d="M45.234375 59.546875h4.78125v14.28125h-4.78125Z" fill="#000000" stroke-width="3.125"></path><path d="M45.234375 21.453125h4.78125v4.75h-4.78125Z" fill="#000000" stroke-width="3.125"></path><path d="M40.484375 16.671875h4.75v4.78125h-4.75Z" fill="#000000" stroke-width="3.125"></path><path d="M35.703125 11.921875h4.78125v4.75h-4.78125Z" fill="#000000" stroke-width="3.125"></path><path d="M26.203125 50.015625h14.28125v4.75h-14.28125Z" fill="#000000" stroke-width="3.125"></path><path d="M21.421875 45.234375h4.78125v4.78125h-4.78125Z" fill="#000000" stroke-width="3.125"></path><path d="M16.671875 7.140625h19.03125v4.78125h-19.03125Z" fill="#000000" stroke-width="3.125"></path><path d="M16.671875 40.484375h4.75v4.75h-4.75Z" fill="#000000" stroke-width="3.125"></path><path d="M11.921875 35.734375h4.75v4.75h-4.75Z" fill="#000000" stroke-width="3.125"></path><path d="M11.921875 11.921875h4.75v4.75h-4.75Z" fill="#000000" stroke-width="3.125"></path><path d="M7.140625 16.671875h4.78125v19.0625h-4.78125Z" fill="#000000" stroke-width="3.125"></path></g></svg>