<svg xmlns="http://www.w3.org/2000/svg" viewBox="0 0 100 100" id="Interface-Essential-Share-3--Streamline-Pixel" height="100" width="100"><desc>Interface Essential Share 3 Streamline Icon: https://streamlinehq.com</desc><title>interface-essential-share-3</title><g><path d="M80.96875 42.84375h4.75v47.625h-4.75Z" fill="#000000" stroke-width="3.125"></path><path d="M76.1875 90.46875h4.78125v4.78125h-4.78125Z" fill="#000000" stroke-width="3.125"></path><path d="M76.1875 38.09375h4.78125v4.75h-4.78125Z" fill="#000000" stroke-width="3.125"></path><path d="M66.6875 33.34375h9.5v4.75h-9.5Z" fill="#000000" stroke-width="3.125"></path><path d="M23.8125 95.25h52.37500000000001V100H23.8125Z" fill="#000000" stroke-width="3.125"></path><path d="m47.625 0 0 4.75 -4.75 0 0 4.78125 -4.78125 0 0 4.75 -4.75 0 0 4.75 -4.75 0 0 4.78125 14.28125 0 0 28.5625 14.28125 0 0 -28.5625 14.28125 0 0 -4.78125 -4.75 0 0 -4.75 -4.78125 0 0 -4.75 -4.75 0 0 -4.78125 -4.78125 0 0 -4.75 -4.75 0z" fill="#000000" stroke-width="3.125"></path><path d="M23.8125 33.34375h9.53125v4.75H23.8125Z" fill="#000000" stroke-width="3.125"></path><path d="M19.0625 90.46875h4.75v4.78125H19.0625Z" fill="#000000" stroke-width="3.125"></path><path d="M19.0625 38.09375h4.75v4.75H19.0625Z" fill="#000000" stroke-width="3.125"></path><path d="M14.28125 42.84375H19.0625v47.625H14.28125Z" fill="#000000" stroke-width="3.125"></path></g></svg>