<svg xmlns="http://www.w3.org/2000/svg" viewBox="0 0 100 100" id="Hand-Fight-2-Finger--Streamline-Pixel" height="100" width="100"><desc>Hand Fight 2 Finger Streamline Icon: https://streamlinehq.com</desc><title>hand-fight-2-finger</title><g><path d="m76.1875 57.15625 0 4.75 9.53125 0 0 14.28125 4.75 0 0 -33.34375 -4.75 0 0 14.3125 -9.53125 0z" fill="#000000" stroke-width="3.125"></path><path d="M80.96875 85.71875H33.34375v-4.75H28.5625v4.75H23.8125V100h66.65625v-14.28125h-4.75v-9.53125h-4.75Zm0 9.53125h-9.53125v-4.78125h9.53125Z" fill="#000000" stroke-width="3.125"></path><path d="m71.4375 57.15625 4.75 0 0 -14.3125 9.53125 0 0 -4.75 -14.28125 0 0 19.0625z" fill="#000000" stroke-width="3.125"></path><path d="M71.4375 4.75h4.75V19.0625h-4.75Z" fill="#000000" stroke-width="3.125"></path><path d="M66.65625 19.0625h4.78125v9.5h-4.78125Z" fill="#000000" stroke-width="3.125"></path><path d="M61.90624999999999 57.15625h9.53125v4.75h-9.53125Z" fill="#000000" stroke-width="3.125"></path><path d="m61.90624999999999 38.09375 9.53125 0 0 -4.75 -4.78125 0 0 -4.78125 -4.75 0 0 9.53125z" fill="#000000" stroke-width="3.125"></path><path d="M57.15625 0h14.28125v4.75h-14.28125Z" fill="#000000" stroke-width="3.125"></path><path d="m57.15625 61.90624999999999 0 -4.75 4.75 0 0 -19.0625 -4.75 0 0 14.28125 -4.78125 0 0 9.53125 4.78125 0z" fill="#000000" stroke-width="3.125"></path><path d="M52.37500000000001 4.75h4.78125V19.0625h-4.78125Z" fill="#000000" stroke-width="3.125"></path><path d="M47.625 47.625h4.75v4.75h-4.75Z" fill="#000000" stroke-width="3.125"></path><path d="M47.625 19.0625h4.75v9.5h-4.75Z" fill="#000000" stroke-width="3.125"></path><path d="M38.09375 61.90624999999999h14.28125v4.75h-14.28125Z" fill="#000000" stroke-width="3.125"></path><path d="M38.09375 42.84375h9.53125v4.78125h-9.53125Z" fill="#000000" stroke-width="3.125"></path><path d="m42.875 33.34375 0 4.75 4.75 0 0 -9.53125 -9.53125 0 0 4.78125 4.78125 0z" fill="#000000" stroke-width="3.125"></path><path d="M33.34375 57.15625h4.75v4.75h-4.75Z" fill="#000000" stroke-width="3.125"></path><path d="M33.34375 19.0625h4.75v9.5h-4.75Z" fill="#000000" stroke-width="3.125"></path><path d="M23.8125 38.09375h14.28125v4.75H23.8125Z" fill="#000000" stroke-width="3.125"></path><path d="M28.5625 4.75h4.78125V19.0625H28.5625Z" fill="#000000" stroke-width="3.125"></path><path d="M23.8125 76.1875h4.75v4.78125H23.8125Z" fill="#000000" stroke-width="3.125"></path><path d="M19.0625 66.65625h4.75v9.53125H19.0625Z" fill="#000000" stroke-width="3.125"></path><path d="M19.0625 42.84375h4.75v4.78125H19.0625Z" fill="#000000" stroke-width="3.125"></path><path d="M19.0625 28.5625h4.75v9.53125H19.0625Z" fill="#000000" stroke-width="3.125"></path><path d="M14.28125 0h14.28125v4.75H14.28125Z" fill="#000000" stroke-width="3.125"></path><path d="M14.28125 47.625H19.0625v19.03125H14.28125Z" fill="#000000" stroke-width="3.125"></path><path d="M14.28125 19.0625H19.0625v9.5H14.28125Z" fill="#000000" stroke-width="3.125"></path><path d="M9.53125 4.75h4.75V19.0625H9.53125Z" fill="#000000" stroke-width="3.125"></path></g></svg>