<svg xmlns="http://www.w3.org/2000/svg" viewBox="0 0 100 100" id="Interface-Essential-Pencil-Edit-2--Streamline-Pixel" height="100" width="100"><desc>Interface Essential Pencil Edit 2 Streamline Icon: https://streamlinehq.com</desc><title>interface-essential-pencil-edit-2</title><g><path d="M95.21875 19.0625H100v14.28125h-4.78125Z" fill="#000000" stroke-width="3.125"></path><path d="M90.46875 33.34375h4.75v4.75h-4.75Z" fill="#000000" stroke-width="3.125"></path><path d="M90.46875 14.28125h4.75V19.0625h-4.75Z" fill="#000000" stroke-width="3.125"></path><path d="M85.71875 38.09375h4.75v4.75h-4.75Z" fill="#000000" stroke-width="3.125"></path><path d="M85.71875 9.53125h4.75v4.75h-4.75Z" fill="#000000" stroke-width="3.125"></path><path d="M80.9375 42.84375h4.78125v4.78125H80.9375Z" fill="#000000" stroke-width="3.125"></path><path d="M80.9375 33.34375h4.78125v4.75H80.9375Z" fill="#000000" stroke-width="3.125"></path><path d="M80.9375 4.75h4.78125v4.78125H80.9375Z" fill="#000000" stroke-width="3.125"></path><path d="M76.1875 47.625h4.75v4.75h-4.75Z" fill="#000000" stroke-width="3.125"></path><path d="M76.1875 28.5625h4.75v4.78125h-4.75Z" fill="#000000" stroke-width="3.125"></path><path d="M71.40625 52.37500000000001h4.78125v4.78125h-4.78125Z" fill="#000000" stroke-width="3.125"></path><path d="M71.40625 33.34375h4.78125v4.75h-4.78125Z" fill="#000000" stroke-width="3.125"></path><path d="M71.40625 23.8125h4.78125v4.75h-4.78125Z" fill="#000000" stroke-width="3.125"></path><path d="M66.65625 0h14.28125v4.75h-14.28125Z" fill="#000000" stroke-width="3.125"></path><path d="M66.65625 57.15625h4.75v4.75h-4.75Z" fill="#000000" stroke-width="3.125"></path><path d="M66.65625 38.09375h4.75v4.75h-4.75Z" fill="#000000" stroke-width="3.125"></path><path d="M66.65625 19.0625h4.75v4.75h-4.75Z" fill="#000000" stroke-width="3.125"></path><path d="M61.90624999999999 61.90624999999999h4.75v4.75h-4.75Z" fill="#000000" stroke-width="3.125"></path><path d="M61.90624999999999 42.84375h4.75v4.78125h-4.75Z" fill="#000000" stroke-width="3.125"></path><path d="M61.90624999999999 23.8125h4.75v4.75h-4.75Z" fill="#000000" stroke-width="3.125"></path><path d="M61.90624999999999 14.28125h4.75V19.0625h-4.75Z" fill="#000000" stroke-width="3.125"></path><path d="M61.90624999999999 4.75h4.75v4.78125h-4.75Z" fill="#000000" stroke-width="3.125"></path><path d="M57.125 66.65625h4.78125v4.78125h-4.78125Z" fill="#000000" stroke-width="3.125"></path><path d="M57.125 47.625h4.78125v4.75h-4.78125Z" fill="#000000" stroke-width="3.125"></path><path d="M57.125 28.5625h4.78125v4.78125h-4.78125Z" fill="#000000" stroke-width="3.125"></path><path d="M57.125 9.53125h4.78125v4.75h-4.78125Z" fill="#000000" stroke-width="3.125"></path><path d="M52.37500000000001 71.4375h4.75v4.75h-4.75Z" fill="#000000" stroke-width="3.125"></path><path d="M52.37500000000001 52.37500000000001h4.75v4.78125h-4.75Z" fill="#000000" stroke-width="3.125"></path><path d="M52.37500000000001 33.34375h4.75v4.75h-4.75Z" fill="#000000" stroke-width="3.125"></path><path d="M52.37500000000001 14.28125h4.75V19.0625h-4.75Z" fill="#000000" stroke-width="3.125"></path><path d="M47.625 76.1875h4.75v4.75h-4.75Z" fill="#000000" stroke-width="3.125"></path><path d="M47.625 57.15625h4.75v4.75h-4.75Z" fill="#000000" stroke-width="3.125"></path><path d="M47.625 38.09375h4.75v4.75h-4.75Z" fill="#000000" stroke-width="3.125"></path><path d="M47.625 19.0625h4.75v4.75h-4.75Z" fill="#000000" stroke-width="3.125"></path><path d="M42.84375 80.9375h4.78125v4.78125h-4.78125Z" fill="#000000" stroke-width="3.125"></path><path d="M42.84375 61.90624999999999h4.78125v4.75h-4.78125Z" fill="#000000" stroke-width="3.125"></path><path d="M42.84375 42.84375h4.78125v4.78125h-4.78125Z" fill="#000000" stroke-width="3.125"></path><path d="M42.84375 23.8125h4.78125v4.75h-4.78125Z" fill="#000000" stroke-width="3.125"></path><path d="M38.09375 85.71875h4.75v4.75h-4.75Z" fill="#000000" stroke-width="3.125"></path><path d="M38.09375 66.65625h4.75v4.78125h-4.75Z" fill="#000000" stroke-width="3.125"></path><path d="M38.09375 47.625h4.75v4.75h-4.75Z" fill="#000000" stroke-width="3.125"></path><path d="M38.09375 28.5625h4.75v4.78125h-4.75Z" fill="#000000" stroke-width="3.125"></path><path d="M33.3125 71.4375h4.78125v4.75h-4.78125Z" fill="#000000" stroke-width="3.125"></path><path d="M33.3125 52.37500000000001h4.78125v4.78125h-4.78125Z" fill="#000000" stroke-width="3.125"></path><path d="M33.3125 33.34375h4.78125v4.75h-4.78125Z" fill="#000000" stroke-width="3.125"></path><path d="M33.3125 95.25h4.78125v-4.78125h-4.78125v-14.28125H23.8125v-9.53125H9.53125v-4.75H4.75v4.75H0V100h33.3125Zm-4.75 0H14.28125v-4.78125H9.53125v-4.75H4.75v-14.28125h14.28125v9.5h9.53125Z" fill="#000000" stroke-width="3.125"></path><path d="M28.5625 57.15625h4.75v4.75H28.5625Z" fill="#000000" stroke-width="3.125"></path><path d="M28.5625 38.09375h4.75v4.75H28.5625Z" fill="#000000" stroke-width="3.125"></path><path d="M23.8125 61.90624999999999h4.75v4.75H23.8125Z" fill="#000000" stroke-width="3.125"></path><path d="M23.8125 42.84375h4.75v4.78125H23.8125Z" fill="#000000" stroke-width="3.125"></path><path d="M19.03125 47.625h4.78125v4.75H19.03125Z" fill="#000000" stroke-width="3.125"></path><path d="M14.28125 52.37500000000001h4.75v4.78125H14.28125Z" fill="#000000" stroke-width="3.125"></path><path d="M9.53125 57.15625h4.75v4.75H9.53125Z" fill="#000000" stroke-width="3.125"></path></g></svg>