<svg xmlns="http://www.w3.org/2000/svg" viewBox="0 0 100 100" id="Photography-File-Picture--Streamline-Pixel" height="100" width="100"><desc>Photography File Picture Streamline Icon: https://streamlinehq.com</desc><title>photography-file-picture</title><g><path d="M85.703125 19.03125h-4.75V14.28125h-4.75V9.5h-4.78125V4.75h-4.75V0H9.515625v100h80.96875V23.8125h-4.78125Zm0 76.1875H14.296875V4.75h47.59375v23.8125h23.8125Z" fill="#000000" stroke-width="3.125"></path><path d="m61.890625 61.90624999999999 0 -4.78125 -4.75 0 0 4.78125 -28.5625 0 0 -4.78125 -4.78125 0 0 -33.3125 -4.75 0 0 52.37500000000001 4.75 0 0 -9.53125 52.40625 0 0 9.53125 4.75 0 0 -42.875 -4.75 0 0 23.8125 -4.78125 0 0 4.78125 -9.53125 0z" fill="#000000" stroke-width="3.125"></path><path d="M23.796875 76.1875h52.40625v4.75H23.796875Z" fill="#000000" stroke-width="3.125"></path><path d="M66.671875 52.37500000000001h4.75v4.75h-4.75Z" fill="#000000" stroke-width="3.125"></path><path d="M57.140625 47.625h9.53125v4.75h-9.53125Z" fill="#000000" stroke-width="3.125"></path><path d="M52.390625 52.37500000000001h4.75v4.75h-4.75Z" fill="#000000" stroke-width="3.125"></path><path d="M47.609375 47.625h4.78125v4.75h-4.78125Z" fill="#000000" stroke-width="3.125"></path><path d="M38.109375 42.84375h9.5v4.78125h-9.5Z" fill="#000000" stroke-width="3.125"></path><path d="M33.328125 47.625h4.78125v4.75h-4.78125Z" fill="#000000" stroke-width="3.125"></path><path d="M28.578125 52.37500000000001h4.75v4.75h-4.75Z" fill="#000000" stroke-width="3.125"></path><path d="M28.578125 28.5625h9.53125v9.53125h-9.53125Z" fill="#000000" stroke-width="3.125"></path><path d="M23.796875 19.03125h28.59375v4.78125h-28.59375Z" fill="#000000" stroke-width="3.125"></path></g></svg>