<svg xmlns="http://www.w3.org/2000/svg" viewBox="0 0 100 100" id="Photography-Frame-Picture--Streamline-Pixel" height="100" width="100"><desc>Photography Frame Picture Streamline Icon: https://streamlinehq.com</desc><title>photography-frame-picture</title><g><path d="M95.25 76.171875H100v9.53125h-4.75Z" fill="#000000" stroke-width="3.125"></path><path d="M95.25 14.296875H100v9.5h-4.75Z" fill="#000000" stroke-width="3.125"></path><path d="M90.5 23.796875h4.75v52.37500000000001h-4.75Z" fill="#000000" stroke-width="3.125"></path><path d="M85.71875 9.515625h9.53125v4.78125h-9.53125Z" fill="#000000" stroke-width="3.125"></path><path d="M85.71875 85.703125h9.53125v4.78125h-9.53125Z" fill="#000000" stroke-width="3.125"></path><path d="M14.3125 80.953125h71.40625v4.75H14.3125Z" fill="#000000" stroke-width="3.125"></path><path d="M14.3125 23.796875v52.37500000000001h71.40625V23.796875Zm66.65625 38.09375h-9.53125v9.53125h-4.75v-9.53125h4.75v-4.75h9.53125Zm0 -28.5625h-4.75v4.75h4.75v14.3125h-4.75v-14.3125h-4.78125v9.53125h-4.75v9.53125h-9.53125v4.75h-9.53125v4.78125h14.28125v4.75h-14.28125v-4.75h-4.75v4.75H19.0625V28.578125h61.90624999999999Z" fill="#000000" stroke-width="3.125"></path><path d="M61.90624999999999 42.859375h4.78125v4.75h-4.78125Z" fill="#000000" stroke-width="3.125"></path><path d="M52.40625 38.078125h9.5v4.78125h-9.5Z" fill="#000000" stroke-width="3.125"></path><path d="M52.40625 52.390625h4.75v4.75h-4.75Z" fill="#000000" stroke-width="3.125"></path><path d="M47.625 42.859375h4.78125v9.53125h-4.78125Z" fill="#000000" stroke-width="3.125"></path><path d="M42.875 33.328125h4.75v4.75h-4.75Z" fill="#000000" stroke-width="3.125"></path><path d="M38.125 57.140625h4.75v4.75H38.125Z" fill="#000000" stroke-width="3.125"></path><path d="M33.34375 61.890625h4.78125v4.78125h-4.78125Z" fill="#000000" stroke-width="3.125"></path><path d="M33.34375 52.390625h4.78125v4.75h-4.78125Z" fill="#000000" stroke-width="3.125"></path><path d="M33.34375 38.078125h4.78125v4.78125h-4.78125Z" fill="#000000" stroke-width="3.125"></path><path d="M28.59375 57.140625h4.75v4.75H28.59375Z" fill="#000000" stroke-width="3.125"></path><path d="M28.59375 42.859375h4.75v4.75H28.59375Z" fill="#000000" stroke-width="3.125"></path><path d="M28.59375 33.328125h4.75v4.75H28.59375Z" fill="#000000" stroke-width="3.125"></path><path d="M23.8125 38.078125h4.78125v4.78125H23.8125Z" fill="#000000" stroke-width="3.125"></path><path d="M14.3125 14.296875h71.40625v4.75H14.3125Z" fill="#000000" stroke-width="3.125"></path><path d="M4.78125 9.515625h9.53125v4.78125H4.78125Z" fill="#000000" stroke-width="3.125"></path><path d="M4.78125 85.703125h9.53125v4.78125H4.78125Z" fill="#000000" stroke-width="3.125"></path><path d="M4.78125 23.796875h4.75v52.37500000000001H4.78125Z" fill="#000000" stroke-width="3.125"></path><path d="M0 76.171875h4.78125v9.53125H0Z" fill="#000000" stroke-width="3.125"></path><path d="M0 14.296875h4.78125v9.5H0Z" fill="#000000" stroke-width="3.125"></path></g></svg>