<svg xmlns="http://www.w3.org/2000/svg" viewBox="0 0 100 100" id="Interface-Essential-Stopwatch--Streamline-Pixel" height="100" width="100"><desc>Interface Essential Stopwatch Streamline Icon: https://streamlinehq.com</desc><title>interface-essential-stopwatch</title><g><path d="m80.96875 35.71875 9.5 0 0 -9.53125 -4.75 0 0 -4.78125 -9.53125 0 0 9.53125 4.78125 0 0 4.78125z" fill="#000000" stroke-width="3.125"></path><path d="M80.96875 45.21875h4.75v33.34375h-4.75Z" fill="#000000" stroke-width="3.125"></path><path d="M76.1875 78.5625h4.78125v9.53125h-4.78125Z" fill="#000000" stroke-width="3.125"></path><path d="M76.1875 35.71875h4.78125v9.5h-4.78125Z" fill="#000000" stroke-width="3.125"></path><path d="M71.4375 69.03125h4.75v4.78125h-4.75Z" fill="#000000" stroke-width="3.125"></path><path d="M71.4375 59.5h4.75v4.78125h-4.75Z" fill="#000000" stroke-width="3.125"></path><path d="M71.4375 50h4.75v4.75h-4.75Z" fill="#000000" stroke-width="3.125"></path><path d="M66.6875 88.09375h9.5v4.75h-9.5Z" fill="#000000" stroke-width="3.125"></path><path d="M66.6875 78.5625h4.75v4.75h-4.75Z" fill="#000000" stroke-width="3.125"></path><path d="M66.6875 40.46875h4.75v4.75h-4.75Z" fill="#000000" stroke-width="3.125"></path><path d="M66.6875 30.9375h9.5v4.78125h-9.5Z" fill="#000000" stroke-width="3.125"></path><path d="M66.6875 7.124999999999999h4.75v9.53125h-4.75Z" fill="#000000" stroke-width="3.125"></path><path d="m42.875 64.28125 4.75 0 0 4.75 4.75 0 0 -4.75 14.3125 0 0 -4.78125 -14.3125 0 0 -9.5 -4.75 0 0 9.5 -4.75 0 0 4.78125z" fill="#000000" stroke-width="3.125"></path><path d="M33.34375 92.84375h33.34375v4.78125H33.34375Z" fill="#000000" stroke-width="3.125"></path><path d="M57.15625 83.3125h4.75v4.78125h-4.75Z" fill="#000000" stroke-width="3.125"></path><path d="M57.15625 35.71875h4.75v4.75h-4.75Z" fill="#000000" stroke-width="3.125"></path><path d="M47.625 83.3125h4.75v4.78125h-4.75Z" fill="#000000" stroke-width="3.125"></path><path d="M47.625 35.71875h4.75v4.75h-4.75Z" fill="#000000" stroke-width="3.125"></path><path d="M38.09375 83.3125h4.78125v4.78125h-4.78125Z" fill="#000000" stroke-width="3.125"></path><path d="M38.09375 35.71875h4.78125v4.75h-4.78125Z" fill="#000000" stroke-width="3.125"></path><path d="M66.6875 30.9375V26.187500000000004h-9.53125V21.40625h9.53125V16.65625h-4.78125V7.124999999999999h4.78125V2.375H33.34375v4.75h4.75v9.53125h-4.75v4.75h9.53125v4.78125h-9.53125V30.9375Zm-14.3125 -23.8125h4.78125v9.53125h-4.78125Zm0 19.0625h-4.75V21.40625h4.75Zm-9.5 -19.0625h4.75v9.53125h-4.75Z" fill="#000000" stroke-width="3.125"></path><path d="M23.8125 88.09375h9.53125v4.75H23.8125Z" fill="#000000" stroke-width="3.125"></path><path d="M28.59375 78.5625h4.75v4.75H28.59375Z" fill="#000000" stroke-width="3.125"></path><path d="M28.59375 40.46875h4.75v4.75H28.59375Z" fill="#000000" stroke-width="3.125"></path><path d="M28.59375 7.124999999999999h4.75v9.53125H28.59375Z" fill="#000000" stroke-width="3.125"></path><path d="M23.8125 69.03125h4.78125v4.78125H23.8125Z" fill="#000000" stroke-width="3.125"></path><path d="M23.8125 59.5h4.78125v4.78125H23.8125Z" fill="#000000" stroke-width="3.125"></path><path d="M23.8125 50h4.78125v4.75H23.8125Z" fill="#000000" stroke-width="3.125"></path><path d="M23.8125 30.9375h9.53125v4.78125H23.8125Z" fill="#000000" stroke-width="3.125"></path><path d="M19.0625 78.5625h4.75v9.53125H19.0625Z" fill="#000000" stroke-width="3.125"></path><path d="M19.0625 35.71875h4.75v9.5H19.0625Z" fill="#000000" stroke-width="3.125"></path><path d="m14.28125 21.40625 0 4.78125 -4.75 0 0 9.53125 9.53125 0 0 -4.78125 4.75 0 0 -9.53125 -9.53125 0z" fill="#000000" stroke-width="3.125"></path><path d="M14.28125 45.21875H19.0625v33.34375H14.28125Z" fill="#000000" stroke-width="3.125"></path></g></svg>