<svg xmlns="http://www.w3.org/2000/svg" viewBox="0 0 100 100" id="Multiple-User--Streamline-Pixel" height="100" width="100"><desc>Multiple User Streamline Icon: https://streamlinehq.com</desc><title>multiple-user</title><g><path d="M95.25 57.140625H100v4.78125h-4.75Z" fill="#000000" stroke-width="3.125"></path><path d="M85.71875 52.390625h9.53125v4.75h-9.53125Z" fill="#000000" stroke-width="3.125"></path><path d="M85.71875 42.859375h4.75v4.78125h-4.75Z" fill="#000000" stroke-width="3.125"></path><path d="m71.4375 47.640625 0 -9.53125 -4.75 0 0 -4.78125 -4.78125 0 0 -9.5 4.78125 0 0 -4.78125 19.03125 0 0 4.78125 4.75 0 0 19.03125 4.78125 0 0 -28.5625 -4.78125 0 0 -4.78125 -4.75 0 0 -4.75 -19.03125 0 0 4.75 -4.78125 0 0 4.78125 -4.75 0 0 14.28125 -14.28125 0 0 -14.28125 -4.78125 0 0 -4.78125 -4.75 0 0 -4.75 -19.0625 0 0 4.75 -4.75 0 0 4.78125 -4.75 0 0 28.5625 4.75 0 0 -19.03125 4.75 0 0 -4.78125 19.0625 0 0 4.78125 4.75 0 0 9.5 -4.75 0 0 4.78125 -4.75 0 0 9.53125 -14.3125 0 0 4.75 14.3125 0 0 19.03125 4.75 0 0 -23.78125 4.75 0 0 -4.78125 23.8125 0 0 4.78125 4.78125 0 0 23.78125 4.75 0 0 -19.03125 14.28125 0 0 -4.75 -14.28125 0z" fill="#000000" stroke-width="3.125"></path><path d="M76.1875 90.484375h4.78125v4.75h-4.78125Z" fill="#000000" stroke-width="3.125"></path><path d="M71.4375 85.734375h4.75v4.75h-4.75Z" fill="#000000" stroke-width="3.125"></path><path d="M61.90624999999999 80.953125h9.53125v4.78125h-9.53125Z" fill="#000000" stroke-width="3.125"></path><path d="M61.90624999999999 71.421875h4.78125v4.78125h-4.78125Z" fill="#000000" stroke-width="3.125"></path><path d="M57.15625 52.390625h4.75v9.53125h-4.75Z" fill="#000000" stroke-width="3.125"></path><path d="M38.09375 76.203125h23.8125v4.75h-23.8125Z" fill="#000000" stroke-width="3.125"></path><path d="M42.875 66.671875h14.28125v4.75h-14.28125Z" fill="#000000" stroke-width="3.125"></path><path d="M38.09375 52.390625h4.78125v9.53125h-4.78125Z" fill="#000000" stroke-width="3.125"></path><path d="M33.34375 71.421875h4.75v4.78125h-4.75Z" fill="#000000" stroke-width="3.125"></path><path d="M28.59375 80.953125h9.5v4.78125H28.59375Z" fill="#000000" stroke-width="3.125"></path><path d="M23.8125 85.734375h4.78125v4.75H23.8125Z" fill="#000000" stroke-width="3.125"></path><path d="M19.0625 90.484375h4.75v4.75H19.0625Z" fill="#000000" stroke-width="3.125"></path><path d="M9.53125 42.859375h4.75v4.78125H9.53125Z" fill="#000000" stroke-width="3.125"></path><path d="M4.78125 52.390625h9.5v4.75H4.78125Z" fill="#000000" stroke-width="3.125"></path><path d="M0 57.140625h4.78125v4.78125H0Z" fill="#000000" stroke-width="3.125"></path></g></svg>