<svg xmlns="http://www.w3.org/2000/svg" viewBox="0 0 100 100" id="Interface-Essential-Text-Format-1--Streamline-Pixel" height="100" width="100"><desc>Interface Essential Text Format 1 Streamline Icon: https://streamlinehq.com</desc><title>interface-essential-text-format-1</title><g><path d="M95.25 80.96875H100v14.28125h-4.75Z" fill="#000000" stroke-width="3.125"></path><path d="M95.25 4.75H100V19.0625h-4.75Z" fill="#000000" stroke-width="3.125"></path><path d="M80.96875 95.25h14.28125V100h-14.28125Z" fill="#000000" stroke-width="3.125"></path><path d="m80.96875 19.0625 0 4.75 4.75 0 0 52.37500000000001 -4.75 0 0 4.78125 14.28125 0 0 -4.78125 -4.78125 0 0 -52.37500000000001 4.78125 0 0 -4.75 -14.28125 0z" fill="#000000" stroke-width="3.125"></path><path d="M80.96875 0h14.28125v4.75h-14.28125Z" fill="#000000" stroke-width="3.125"></path><path d="m80.96875 80.96875 -4.78125 0 0 4.75 -52.37500000000001 0 0 -4.75 -4.75 0 0 14.28125 4.75 0 0 -4.78125 52.37500000000001 0 0 4.78125 4.78125 0 0 -14.28125z" fill="#000000" stroke-width="3.125"></path><path d="M66.65625 28.5625h4.78125v9.53125h-4.78125Z" fill="#000000" stroke-width="3.125"></path><path d="m33.34375 23.8125 0 4.75 14.28125 0 0 42.875 -9.53125 0 0 4.75 23.8125 0 0 -4.75 -9.53125 0 0 -42.875 14.28125 0 0 -4.75 -33.3125 0z" fill="#000000" stroke-width="3.125"></path><path d="M28.5625 28.5625h4.78125v9.53125H28.5625Z" fill="#000000" stroke-width="3.125"></path><path d="m19.0625 19.0625 4.75 0 0 -4.78125 52.37500000000001 0 0 4.78125 4.78125 0 0 -14.3125 -4.78125 0 0 4.78125 -52.37500000000001 0 0 -4.78125 -4.75 0 0 14.3125z" fill="#000000" stroke-width="3.125"></path><path d="M4.75 95.25H19.0625V100H4.75Z" fill="#000000" stroke-width="3.125"></path><path d="m19.0625 80.96875 0 -4.78125 -4.78125 0 0 -52.37500000000001 4.78125 0 0 -4.75 -14.3125 0 0 4.75 4.78125 0 0 52.37500000000001 -4.78125 0 0 4.78125 14.3125 0z" fill="#000000" stroke-width="3.125"></path><path d="M4.75 0H19.0625v4.75H4.75Z" fill="#000000" stroke-width="3.125"></path><path d="M0 80.96875h4.75v14.28125H0Z" fill="#000000" stroke-width="3.125"></path><path d="M0 4.75h4.75V19.0625H0Z" fill="#000000" stroke-width="3.125"></path></g></svg>