<svg xmlns="http://www.w3.org/2000/svg" viewBox="0 0 100 100" id="Interface-Essential-Bin--Streamline-Pixel" height="100" width="100"><desc>Interface Essential Bin Streamline Icon: https://streamlinehq.com</desc><title>interface-essential-bin</title><g><path d="m80.953125 26.187500000000004 0 52.37500000000001 4.78125 0 0 -52.37500000000001 9.5 0 0 -4.75 -4.75 0 0 -4.78125 -19.0625 0 0 -9.53125 -4.75 0 0 9.53125 -33.34375 0 0 -9.53125 -4.75 0 0 9.53125 -19.03125 0 0 4.78125 -4.78125 0 0 4.75 9.53125 0 0 52.37500000000001 4.75 0 0 -52.37500000000001 61.90624999999999 0z" fill="#000000" stroke-width="3.125"></path><path d="M76.203125 78.5625h4.75v14.28125h-4.75Z" fill="#000000" stroke-width="3.125"></path><path d="M23.828125 92.84375h52.37500000000001v4.78125H23.828125Z" fill="#000000" stroke-width="3.125"></path><path d="M66.671875 35.71875h4.75v38.09375h-4.75Z" fill="#000000" stroke-width="3.125"></path><path d="M61.92187500000001 73.8125h4.75v9.5h-4.75Z" fill="#000000" stroke-width="3.125"></path><path d="M47.640625 35.71875h4.75v47.59375h-4.75Z" fill="#000000" stroke-width="3.125"></path><path d="M33.328125 2.375h33.34375v4.75h-33.34375Z" fill="#000000" stroke-width="3.125"></path><path d="M33.328125 73.8125h4.78125v9.5h-4.78125Z" fill="#000000" stroke-width="3.125"></path><path d="M28.578125 35.71875h4.75v38.09375h-4.75Z" fill="#000000" stroke-width="3.125"></path><path d="M19.046875 78.5625h4.78125v14.28125h-4.78125Z" fill="#000000" stroke-width="3.125"></path></g></svg>