<svg xmlns="http://www.w3.org/2000/svg" viewBox="0 0 100 100" id="Interface-Essential-Alert-Triangle-2--Streamline-Pixel" height="100" width="100"><desc>Interface Essential Alert Triangle 2 Streamline Icon: https://streamlinehq.com</desc><title>interface-essential-alert-triangle-2</title><g><path d="M95.25 76.1875h-4.78125v-9.53125h-4.75v-9.5H80.9375v-9.53125h-4.75v-9.53125h-4.75V28.5625h-4.78125V19.03125h-4.75V9.53125h-4.75V4.75h-4.78125V0h-4.75v4.75h-4.78125v4.78125h-4.75v9.5h-4.75v9.53125H28.5625v9.53125H23.8125v9.53125H19.03125v9.53125H14.28125v9.5H9.53125v9.53125H4.75v9.53125H0v9.53125h4.75V100h90.5v-4.75H100v-9.53125h-4.75Zm-33.34375 9.53125h-4.75v4.75h-14.3125v-4.75h-4.75v-14.28125h4.75v-4.78125h14.3125v4.78125h4.75Zm0 -33.34375h-4.75v9.53125h-14.3125v-9.53125h-4.75v-19.03125h4.75V28.5625h14.3125v4.78125h4.75Z" fill="#000000" stroke-width="3.125"></path><path d="M52.37500000000001 38.09375h4.78125v9.53125h-4.78125Z" fill="#000000" stroke-width="3.125"></path><path d="M47.625 33.34375h4.75v4.75h-4.75Z" fill="#000000" stroke-width="3.125"></path></g></svg>