<svg xmlns="http://www.w3.org/2000/svg" viewBox="0 0 100 100" id="Ecology-Windmill-1--Streamline-Pixel" height="100" width="100"><desc>Ecology Windmill 1 Streamline Icon: https://streamlinehq.com</desc><title>ecology-windmill-1</title><g><path d="M95.25 76.1875H100v4.78125h-4.75Z" fill="#000000" stroke-width="3.125"></path><path d="M95.25 14.28125H100V19.0625h-4.75Z" fill="#000000" stroke-width="3.125"></path><path d="M90.46875 80.96875h4.78125v4.75h-4.78125Z" fill="#000000" stroke-width="3.125"></path><path d="M90.46875 71.4375h4.78125v4.75h-4.78125Z" fill="#000000" stroke-width="3.125"></path><path d="M90.46875 19.0625h4.78125v4.75h-4.78125Z" fill="#000000" stroke-width="3.125"></path><path d="M90.46875 9.53125h4.78125v4.75h-4.78125Z" fill="#000000" stroke-width="3.125"></path><path d="M85.71875 85.71875h4.75v4.78125h-4.75Z" fill="#000000" stroke-width="3.125"></path><path d="M85.71875 66.6875h4.75v4.75h-4.75Z" fill="#000000" stroke-width="3.125"></path><path d="M85.71875 23.8125h4.75v4.78125h-4.75Z" fill="#000000" stroke-width="3.125"></path><path d="M85.71875 4.78125h4.75v4.75h-4.75Z" fill="#000000" stroke-width="3.125"></path><path d="M80.96875 71.4375h4.75v4.75h-4.75Z" fill="#000000" stroke-width="3.125"></path><path d="M80.96875 61.90624999999999h4.75v4.78125h-4.75Z" fill="#000000" stroke-width="3.125"></path><path d="M80.96875 28.59375h4.75v4.75h-4.75Z" fill="#000000" stroke-width="3.125"></path><path d="M80.96875 19.0625h4.75v4.75h-4.75Z" fill="#000000" stroke-width="3.125"></path><path d="M80.96875 0h4.75v4.78125h-4.75Z" fill="#000000" stroke-width="3.125"></path><path d="m80.96875 76.1875 -4.78125 0 0 23.8125 4.78125 0 0 -4.75 4.75 0 0 -4.75 -4.75 0 0 -14.3125z" fill="#000000" stroke-width="3.125"></path><path d="M76.1875 33.34375h4.78125v4.75h-4.78125Z" fill="#000000" stroke-width="3.125"></path><path d="M76.1875 14.28125h4.78125V19.0625h-4.78125Z" fill="#000000" stroke-width="3.125"></path><path d="M76.1875 4.78125h4.78125v4.75h-4.78125Z" fill="#000000" stroke-width="3.125"></path><path d="M71.4375 33.34375h-4.78125V28.59375h-4.75V23.8125h-4.75V19.0625h-4.78125V14.28125h-4.75V19.0625h-4.75v4.75h-4.78125v4.78125h-4.75v4.75H28.5625v4.75H23.8125v4.78125H19.0625v4.75H14.28125v4.78125h9.53125v4.75H19.0625v4.75h4.75v14.28125h4.75v-4.75h42.875v4.75h4.75v-14.28125h4.78125v-4.75h-4.78125v-4.75h9.53125v-4.78125h-4.75v-4.75h-4.78125v-4.78125h-4.75ZM33.34375 66.6875H28.5625v-4.78125h4.78125Zm9.53125 0h-4.78125v-4.78125h4.78125Zm9.5 0h-4.75v-4.78125h4.75Zm9.53125 0h-4.75v-4.78125h4.75Zm9.53125 0h-4.78125v-4.78125h4.78125Zm0 -9.53125H28.5625v-4.75h42.875Z" fill="#000000" stroke-width="3.125"></path><path d="M71.4375 28.59375h4.75v4.75h-4.75Z" fill="#000000" stroke-width="3.125"></path><path d="M71.4375 9.53125h4.75v4.75h-4.75Z" fill="#000000" stroke-width="3.125"></path><path d="M66.65625 23.8125h4.78125v4.78125h-4.78125Z" fill="#000000" stroke-width="3.125"></path><path d="M66.65625 14.28125h4.78125V19.0625h-4.78125Z" fill="#000000" stroke-width="3.125"></path><path d="M61.90624999999999 19.0625h4.75v4.75h-4.75Z" fill="#000000" stroke-width="3.125"></path><path d="M42.875 76.1875v4.78125h-4.78125V100h23.8125v-19.03125h-4.75v-4.78125Zm4.75 19.0625h-4.75v-4.75h4.75Z" fill="#000000" stroke-width="3.125"></path><path d="M33.34375 19.0625h4.75v4.75h-4.75Z" fill="#000000" stroke-width="3.125"></path><path d="M28.5625 23.8125h4.78125v4.78125H28.5625Z" fill="#000000" stroke-width="3.125"></path><path d="M28.5625 14.28125h4.78125V19.0625H28.5625Z" fill="#000000" stroke-width="3.125"></path><path d="M23.8125 28.59375h4.75v4.75H23.8125Z" fill="#000000" stroke-width="3.125"></path><path d="M23.8125 9.53125h4.75v4.75H23.8125Z" fill="#000000" stroke-width="3.125"></path><path d="m19.0625 90.5 -4.78125 0 0 4.75 4.78125 0 0 4.75 4.75 0 0 -23.8125 -4.75 0 0 14.3125z" fill="#000000" stroke-width="3.125"></path><path d="M19.0625 33.34375h4.75v4.75H19.0625Z" fill="#000000" stroke-width="3.125"></path><path d="M19.0625 14.28125h4.75V19.0625H19.0625Z" fill="#000000" stroke-width="3.125"></path><path d="M19.0625 4.78125h4.75v4.75H19.0625Z" fill="#000000" stroke-width="3.125"></path><path d="M14.28125 71.4375H19.0625v4.75H14.28125Z" fill="#000000" stroke-width="3.125"></path><path d="M14.28125 61.90624999999999H19.0625v4.78125H14.28125Z" fill="#000000" stroke-width="3.125"></path><path d="M14.28125 28.59375H19.0625v4.75H14.28125Z" fill="#000000" stroke-width="3.125"></path><path d="M14.28125 19.0625H19.0625v4.75H14.28125Z" fill="#000000" stroke-width="3.125"></path><path d="M14.28125 0H19.0625v4.78125H14.28125Z" fill="#000000" stroke-width="3.125"></path><path d="M9.53125 85.71875h4.75v4.78125H9.53125Z" fill="#000000" stroke-width="3.125"></path><path d="M9.53125 66.6875h4.75v4.75H9.53125Z" fill="#000000" stroke-width="3.125"></path><path d="M9.53125 23.8125h4.75v4.78125H9.53125Z" fill="#000000" stroke-width="3.125"></path><path d="M9.53125 4.78125h4.75v4.75H9.53125Z" fill="#000000" stroke-width="3.125"></path><path d="M4.75 80.96875h4.78125v4.75H4.75Z" fill="#000000" stroke-width="3.125"></path><path d="M4.75 71.4375h4.78125v4.75H4.75Z" fill="#000000" stroke-width="3.125"></path><path d="M4.75 19.0625h4.78125v4.75H4.75Z" fill="#000000" stroke-width="3.125"></path><path d="M4.75 9.53125h4.78125v4.75H4.75Z" fill="#000000" stroke-width="3.125"></path><path d="M0 76.1875h4.75v4.78125H0Z" fill="#000000" stroke-width="3.125"></path><path d="M0 14.28125h4.75V19.0625H0Z" fill="#000000" stroke-width="3.125"></path></g></svg>