<svg xmlns="http://www.w3.org/2000/svg" version="1.1" viewBox="-5.0 -10.0 110.0 135.0">
 <path d="m7.6758 73.906v3.6602h3.6602v3.6602h33.176v3.7773h10.98v-3.7773h33.176v-3.6602h3.6602v-7.3203h3.6602v-44.156h-3.6602v-3.7773h-3.6602v-3.6602h-3.6602v-3.6602h-3.7773v3.6602h-10.98v3.6602h-11.098v3.7773h-3.6602v3.6602h-3.6602v3.6602h-3.6602v-3.6602h-3.6602v-3.6602h-3.7773v-3.7773h-10.98v-3.6602h-11.098v-3.6602h-3.6602v3.6602h-3.6602v3.6602h-3.6602v3.7773h-3.7773v44.156h3.7773zm69.895-18.418h3.6602v-3.6602h-10.98v3.6602h-7.3203v3.6602h-7.4375v3.7773h7.4375v-3.7773h7.3203v-3.6602zm-18.418-7.3203h-3.6602v3.6602h7.4375v-3.6602h7.3203v-3.6602h10.98v-3.7773h-10.98v3.7773h-7.3203v3.6602zm18.418-14.758h3.6602v-3.6602h-7.3203v3.6602h-10.98v3.6602h-7.4375v3.6602h7.4375v-3.6602h10.98v-3.6602zm-36.836 29.516h3.7773v-3.7773h-7.4375v-3.6602h-7.3203v-3.6602h-11.098v3.6602h11.098v3.6602h7.3203v3.7773zm0-11.098h3.7773v-3.6602h-7.4375v-3.6602h-7.3203v-3.7773h-11.098v3.7773h11.098v3.6602h7.3203v3.6602zm0-11.098h3.7773v-3.6602h-7.4375v-3.6602h-10.98v-3.6602h-7.4375v3.6602h7.4375v3.6602h10.98v3.6602zm51.594 25.855h-7.3203v-3.6602h3.6602v-36.836h3.6602zm-36.836-36.836h3.6602v-3.6602h11.098v-3.7773h10.98v-3.6602h3.7773v44.273h-11.098v3.6602h-7.3203v3.6602h-7.4375v3.6602h-3.6602v3.6602h-3.6602v-44.156h3.6602zm33.176 40.496v7.3203h-22.078v-3.6602h18.418v-3.6602zm-3.6602 0h-11.098v-3.6602h11.098zm-70.012 0v3.6602h18.418v3.6602h-22.078v-7.3203zm3.6602 0h-3.6602v-3.6602h11.098v3.6602zm-10.98-7.3203v-36.836h3.6602v36.836h3.6602v3.6602h-7.3203zm7.3203-22.195v-22.078h3.6602v3.6602h11.098v3.7773h10.98v3.6602h3.7773v3.6602h3.6602v44.156h-3.6602v-3.6602h-3.7773v-3.6602h-7.3203v-3.6602h-7.3203v-3.6602h-11.098z" fill-rule="evenodd"/>
</svg>