<svg xmlns="http://www.w3.org/2000/svg" viewBox="0 0 100 100" id="Content-Files-Open-Book--Streamline-Pixel" height="100" width="100"><desc>Content Files Open Book Streamline Icon: https://streamlinehq.com</desc><title>content-files-open-book</title><g><path d="M90.46875 26.187500000000004h4.78125v57.15625h-4.78125Z" fill="#000000" stroke-width="3.125"></path><path d="M80.96875 83.34375h9.5v4.75h-9.5Z" fill="#000000" stroke-width="3.125"></path><path d="M71.4375 78.5625h9.53125v4.78125h-9.53125Z" fill="#000000" stroke-width="3.125"></path><path d="M57.15625 73.8125h14.28125v4.75h-14.28125Z" fill="#000000" stroke-width="3.125"></path><path d="M61.90624999999999 50h14.28125v4.75h-14.28125Z" fill="#000000" stroke-width="3.125"></path><path d="M61.90624999999999 35.71875h14.28125v4.75h-14.28125Z" fill="#000000" stroke-width="3.125"></path><path d="M61.90624999999999 21.4375h14.28125v4.75h-14.28125Z" fill="#000000" stroke-width="3.125"></path><path d="M57.15625 11.90625h23.8125v4.75h-23.8125Z" fill="#000000" stroke-width="3.125"></path><path d="M57.15625 40.46875h4.75v4.78125h-4.75Z" fill="#000000" stroke-width="3.125"></path><path d="M57.15625 26.187500000000004h4.75v4.78125h-4.75Z" fill="#000000" stroke-width="3.125"></path><path d="M52.37500000000001 16.65625h4.78125v4.78125h-4.78125Z" fill="#000000" stroke-width="3.125"></path><path d="M42.875 78.5625h14.28125v4.78125h-14.28125Z" fill="#000000" stroke-width="3.125"></path><path d="M42.875 16.65625h4.75v4.78125h-4.75Z" fill="#000000" stroke-width="3.125"></path><path d="M28.5625 73.8125h14.3125v4.75H28.5625Z" fill="#000000" stroke-width="3.125"></path><path d="M38.09375 40.46875h4.78125v4.78125h-4.78125Z" fill="#000000" stroke-width="3.125"></path><path d="M38.09375 26.187500000000004h4.78125v4.78125h-4.78125Z" fill="#000000" stroke-width="3.125"></path><path d="M23.8125 50h14.28125v4.75H23.8125Z" fill="#000000" stroke-width="3.125"></path><path d="M23.8125 35.71875h14.28125v4.75H23.8125Z" fill="#000000" stroke-width="3.125"></path><path d="M23.8125 21.4375h14.28125v4.75H23.8125Z" fill="#000000" stroke-width="3.125"></path><path d="M19.0625 11.90625h23.8125v4.75H19.0625Z" fill="#000000" stroke-width="3.125"></path><path d="M19.0625 78.5625h9.5v4.78125H19.0625Z" fill="#000000" stroke-width="3.125"></path><path d="m42.875 64.28125 0 -4.75 -14.3125 0 0 4.75 -9.5 0 0 -47.625 -4.78125 0 0 4.78125 -4.75 0 0 4.75 4.75 0 0 47.625 14.28125 0 0 -4.75 14.3125 0 0 4.75 14.28125 0 0 -4.75 14.28125 0 0 4.75 14.28125 0 0 -47.625 4.75 0 0 -4.75 -4.75 0 0 -4.78125 -4.75 0 0 47.625 -9.53125 0 0 -4.75 -14.28125 0 0 4.75 -4.78125 0 0 -42.84375 -4.75 0 0 42.84375 -4.75 0z" fill="#000000" stroke-width="3.125"></path><path d="M9.53125 83.34375H19.0625v4.75H9.53125Z" fill="#000000" stroke-width="3.125"></path><path d="M4.75 26.187500000000004h4.78125v57.15625H4.75Z" fill="#000000" stroke-width="3.125"></path></g></svg>