<svg xmlns="http://www.w3.org/2000/svg" version="1.1" viewBox="-5.0 -10.0 110.0 135.0">
 <path d="m12.75 26.918v-2.125h2.125v-2.2422h4.3672v-2.125h4.3672v8.7344h-2.125v2.125h2.125v24.195h2.2422v-32.93h2.2422v-4.3672h17.469v2.2422h-13.102v2.125h-2.2422v28.562h2.2422v2.125h17.469v-2.125h10.977v-2.2422h2.2422v-19.711h2.125v24.078h-6.4922v2.2422h-10.977v2.125h-19.711v-2.125h-2.2422v2.125h-2.2422v-2.125h-8.7344v-2.2422h-2.125v-4.3672h2.125v-2.2422h2.2422v-2.125h4.3672v-2.2422h-6.6094v-2.125h-2.125v-2.2422h4.3672v-2.125h-4.3672v-2.2422h6.4922v-2.2422h-4.3672v-2.125h-2.125zm61.395 37.309h2.125v-2.2422h8.7344v2.2422h2.2422v2.2422h-13.102zm2.125-2.2422h-2.125v-2.125h-4.4844v-2.2422h-8.7344v-2.125h4.3672v-2.2422h2.2422v-24.078h-2.2422v-8.7344h-2.125v-2.2422h-10.977v-2.2422h-28.562v2.2422h-4.3672v2.2422h-4.3672v2.125h-2.125v2.2422h-2.2422v30.688h2.2422v2.125h-4.4844v2.2422h-2.125v4.3672h2.125v2.2422h2.2422v2.125h4.3672v2.2422h2.2422v2.125h2.125v2.2422h4.3672v2.125h2.2422v2.2422h2.2422v2.2422h4.3672v2.125h8.7344v-2.125h10.977v-2.2422h10.977v-2.2422h13.102v-2.125h8.7344v-2.2422h6.6094v-2.125h2.2422v-2.2422h-2.2422v-2.125h-2.125v-2.2422h-2.2422v-2.2422h-2.2422v-2.125h-8.7344zm-28.453 17.59v-2.2422h-2.2422v-2.125h13.219v-2.2422h13.102v-2.125h6.6094v-2.2422h8.7344v2.2422h-4.3672v2.125h-6.6094v2.2422h-13.102v2.125h-10.977v2.2422zm-10.98 0v2.2422h-2.2422v-2.2422zm4.3672-2.2422h-6.6094v-2.125h-2.125v-2.2422h-4.3672v-2.125h-2.2422v-2.2422h-4.3672v-2.125h-2.2422v-2.2422h4.3672v2.2422h8.8516v2.125h-2.2422v2.2422h4.3672v2.125h2.2422v2.2422h4.3672zm8.7383-41.559h2.2422v-2.2422h-4.3672v-2.2422h-4.3672v2.2422h2.125v2.2422zm4.3672 4.3672h2.2422v-2.2422h-8.7344v2.2422h-6.6094v2.125h6.6094v-2.125zm13.223 26.328v2.125h2.125v-2.125h4.4844v2.125h-2.2422v2.2422h-13.102v2.125h-10.977v-2.125h-2.2422v4.3672h-4.3672v-2.2422h-2.2422v-2.125h-2.125v-2.2422h4.3672v2.2422h2.2422v-2.2422h-2.2422v-2.125h15.344v2.125h-2.2422v2.2422h2.2422v-2.2422h2.2422v-2.125h-2.2422v-2.2422h6.6094v2.2422h-2.2422v2.125h2.2422v-2.125h2.125v-2.2422h4.3672v2.2422zm-17.59 2.125v2.2422h2.2422v-2.2422zm-32.82-2.125h2.125v2.125h2.2422v2.2422h4.3672v2.125h2.2422v2.2422h2.125v4.3672h-2.125v-2.2422h-2.2422v-2.125h-2.2422v-2.2422h-4.3672v-2.125h-2.125v-2.2422h-2.2422v-2.125h-4.3672v-2.2422h-2.2422v-4.3672h8.8516v-2.2422h2.125v2.2422h-2.125v2.125h2.125v2.2422h-2.125zm54.781-4.4883v2.2422h-2.2422v-2.2422zm-2.2422-2.125v2.125h-8.7344v-2.125zm-13.105 2.125v2.2422h-6.6094v-2.2422zm-15.348 2.2422v2.2422h-8.7344v-2.2422zm17.59-6.6133v2.2422h-8.8516v2.125h-17.469v2.2422h-8.8516v-2.2422h-4.3672v-2.125h28.562v-2.2422zm2.125-30.695v-4.3672h-15.344v-2.125h17.586v8.7344h-2.2422zm-2.125-2.125v4.3672h2.125v19.711h-10.977v2.2422h-17.469v-28.562h13.102v2.2422z" fill-rule="evenodd"/>
</svg>