<svg xmlns="http://www.w3.org/2000/svg" version="1.1" viewBox="-5.0 -10.0 110.0 135.0">
 <path d="m18.184 10.98v5.7852h-5.7852v5.7852h-5.7852v25.973h5.7852v5.7852h5.7852v5.7852h5.7852v5.7852h5.7852v5.7852h5.7852v5.7852h5.7852v5.7852h5.7852v5.7852h5.7852v-5.7852h5.7852v-5.7852h5.7852v-5.7852h5.7852v-5.7852h5.6641v-5.7852h5.7852v-5.7852h5.7852v-5.7852h5.7852v-25.973h-5.7852v-5.7852h-5.7852v-5.7852h-17.234v5.7852h-5.7852v5.7852h-5.7852v5.7852h-5.7852v-5.7852h-5.7852v-5.7852h-5.7852v-5.7852zm37.543 60.684h-2.832v5.7852h-5.7852v-11.57h-5.7852v-5.7852h-5.7852v-5.7852h-5.7852v-5.7852h-5.7852v-5.7852h-5.7852v-20.188h5.7852v-5.7852h11.57v5.7852h5.7852v5.7852h5.7852v5.7852h5.7852v-5.7852h5.7852v-5.7852h5.7852v-5.7852h17.234v5.7852h5.7852v25.973h-5.7852v5.7852h-5.7852v5.7852h-5.6641v5.7852h-5.7852v5.7852zm8.7383-25.973h5.7852v-5.7852h5.668v-11.57h5.7852v11.57h-5.7852v5.7852h-5.668v5.7852h-5.7852z" fill-rule="evenodd"/>
</svg>