<svg xmlns="http://www.w3.org/2000/svg" viewBox="0 0 100 100" id="Interface-Essential-Share-2--Streamline-Pixel" height="100" width="100"><desc>Interface Essential Share 2 Streamline Icon: https://streamlinehq.com</desc><title>interface-essential-share-2</title><g><path d="m95.25 14.28125 -4.78125 0 0 4.78125 -4.75 0 0 -4.78125 -4.75 0 0 -4.75 4.75 0 0 -4.78125 -4.75 0 0 -4.75 -4.78125 0 0 19.0625 -14.28125 0 0 4.75 14.28125 0 0 19.03125 4.78125 0 0 -4.75 4.75 0 0 -4.75 4.75 0 0 -4.78125 4.78125 0 0 -4.75 4.75 0 0 -4.75 -4.75 0 0 -4.78125z" stroke-width="3.125"></path><path d="M85.71875 52.37500000000001h4.75v38.09375h-4.75Z" stroke-width="3.125"></path><path d="M85.71875 9.53125h4.75v4.75h-4.75Z" stroke-width="3.125"></path><path d="M80.96875 90.46875h4.75v4.78125h-4.75Z" stroke-width="3.125"></path><path d="M9.53125 95.25h71.4375V100H9.53125Z" stroke-width="3.125"></path><path d="M52.37500000000001 23.8125h9.53125v4.75h-9.53125Z" stroke-width="3.125"></path><path d="M47.625 28.5625h4.75v4.78125h-4.75Z" stroke-width="3.125"></path><path d="M42.84375 33.34375h4.78125v23.8125h-4.78125Z" stroke-width="3.125"></path><path d="M9.53125 9.53125h47.625v4.75H9.53125Z" stroke-width="3.125"></path><path d="M4.75 90.46875h4.78125v4.78125H4.75Z" stroke-width="3.125"></path><path d="M4.75 14.28125h4.78125V19.0625H4.75Z" stroke-width="3.125"></path><path d="M0 19.0625h4.75v71.40625H0Z" stroke-width="3.125"></path></g></svg>