<svg xmlns="http://www.w3.org/2000/svg" viewBox="0 0 100 100" id="Map-Navigation-Pin-Location-1--Streamline-Pixel" height="100" width="100"><desc>Map Navigation Pin Location 1 Streamline Icon: https://streamlinehq.com</desc><title>map-navigation-pin-location-1</title><g><path d="M80.953125 23.78125h4.75v23.8125h-4.75Z" fill="#000000" stroke-width="3.125"></path><path d="M76.203125 47.59375h4.75v14.28125h-4.75Z" fill="#000000" stroke-width="3.125"></path><path d="M76.203125 14.28125h4.75v9.5h-4.75Z" fill="#000000" stroke-width="3.125"></path><path d="M71.421875 61.875h4.78125v9.53125h-4.78125Z" fill="#000000" stroke-width="3.125"></path><path d="M71.421875 9.5h4.78125v4.78125h-4.78125Z" fill="#000000" stroke-width="3.125"></path><path d="M66.671875 71.40625h4.75v9.53125h-4.75Z" fill="#000000" stroke-width="3.125"></path><path d="m66.671875 38.09375 -4.75 0 0 -9.53125 -4.78125 0 0 -4.78125 -4.75 0 0 -4.75 4.75 0 0 -4.75 -14.28125 0 0 4.75 -4.75 0 0 4.75 -4.78125 0 0 4.78125 -4.75 0 0 14.28125 4.75 0 0 4.75 4.78125 0 0 4.78125 4.75 0 0 4.75 14.28125 0 0 -4.75 4.78125 0 0 -4.78125 4.75 0 0 -4.75 4.75 0 0 -14.28125 -4.75 0 0 9.53125z" fill="#000000" stroke-width="3.125"></path><path d="M61.92187500000001 80.9375h4.75v4.75h-4.75Z" fill="#000000" stroke-width="3.125"></path><path d="M61.92187500000001 23.78125h4.75v4.78125h-4.75Z" fill="#000000" stroke-width="3.125"></path><path d="M61.92187500000001 4.75h9.5v4.75h-9.5Z" fill="#000000" stroke-width="3.125"></path><path d="M57.140625 85.6875h4.78125v4.78125h-4.78125Z" fill="#000000" stroke-width="3.125"></path><path d="M57.140625 19.03125h4.78125v4.75h-4.78125Z" fill="#000000" stroke-width="3.125"></path><path d="M52.390625 90.46875h4.75v4.75h-4.75Z" fill="#000000" stroke-width="3.125"></path><path d="M47.609375 95.21875h4.78125V100h-4.78125Z" fill="#000000" stroke-width="3.125"></path><path d="M42.859375 90.46875h4.75v4.75h-4.75Z" fill="#000000" stroke-width="3.125"></path><path d="M38.109375 0h23.8125v4.75h-23.8125Z" fill="#000000" stroke-width="3.125"></path><path d="M38.109375 85.6875h4.75v4.78125h-4.75Z" fill="#000000" stroke-width="3.125"></path><path d="M33.328125 80.9375h4.78125v4.75h-4.78125Z" fill="#000000" stroke-width="3.125"></path><path d="M28.578125 4.75h9.53125v4.75h-9.53125Z" fill="#000000" stroke-width="3.125"></path><path d="M28.578125 71.40625h4.75v9.53125h-4.75Z" fill="#000000" stroke-width="3.125"></path><path d="M23.796875 61.875h4.78125v9.53125h-4.78125Z" fill="#000000" stroke-width="3.125"></path><path d="M23.796875 9.5h4.78125v4.78125h-4.78125Z" fill="#000000" stroke-width="3.125"></path><path d="M19.046875 47.59375h4.75v14.28125h-4.75Z" fill="#000000" stroke-width="3.125"></path><path d="M19.046875 14.28125h4.75v9.5h-4.75Z" fill="#000000" stroke-width="3.125"></path><path d="M14.296875 23.78125h4.75v23.8125h-4.75Z" fill="#000000" stroke-width="3.125"></path></g></svg>