<svg xmlns="http://www.w3.org/2000/svg" viewBox="0 0 100 100" id="Interface-Essential-Alert-Caution--Streamline-Pixel" height="100" width="100"><desc>Interface Essential Alert Caution Streamline Icon: https://streamlinehq.com</desc><title>interface-essential-alert-caution</title><g><path d="M92.84375 80.953125h4.78125v9.53125h-4.78125Z" stroke-width="3.125"></path><path d="M88.09375 71.421875h4.75v9.53125h-4.75Z" stroke-width="3.125"></path><path d="M7.124999999999999 90.484375h85.71875v4.75H7.124999999999999Z" stroke-width="3.125"></path><path d="M83.34375 61.890625h4.75v9.53125h-4.75Z" stroke-width="3.125"></path><path d="M78.5625 52.390625h4.78125v9.5h-4.78125Z" stroke-width="3.125"></path><path d="M73.8125 42.859375h4.75v9.53125h-4.75Z" stroke-width="3.125"></path><path d="M69.03125 33.328125h4.78125v9.53125h-4.78125Z" stroke-width="3.125"></path><path d="M64.28125 23.796875h4.75v9.53125h-4.75Z" stroke-width="3.125"></path><path d="M59.53125 14.296875h4.75v9.5h-4.75Z" stroke-width="3.125"></path><path d="M54.75 9.515625h4.78125v4.78125h-4.78125Z" stroke-width="3.125"></path><path d="m45.21875 80.953125 9.53125 0 0 -4.75 4.78125 0 0 -9.53125 -4.78125 0 0 -4.78125 -9.53125 0 0 4.78125 -4.75 0 0 9.53125 4.75 0 0 4.75z" stroke-width="3.125"></path><path d="M45.21875 28.578125h9.53125v28.5625h-9.53125Z" stroke-width="3.125"></path><path d="M45.21875 4.765625h9.53125v4.75h-9.53125Z" stroke-width="3.125"></path><path d="M40.46875 9.515625h4.75v4.78125h-4.75Z" stroke-width="3.125"></path><path d="M35.71875 14.296875h4.75v9.5h-4.75Z" stroke-width="3.125"></path><path d="M30.9375 23.796875h4.78125v9.53125H30.9375Z" stroke-width="3.125"></path><path d="M26.187500000000004 33.328125H30.9375v9.53125H26.187500000000004Z" stroke-width="3.125"></path><path d="M21.4375 42.859375h4.75v9.53125H21.4375Z" stroke-width="3.125"></path><path d="M16.65625 52.390625h4.78125v9.5H16.65625Z" stroke-width="3.125"></path><path d="M11.90625 61.890625h4.75v9.53125H11.90625Z" stroke-width="3.125"></path><path d="M7.124999999999999 71.421875h4.78125v9.53125H7.124999999999999Z" stroke-width="3.125"></path><path d="M2.375 80.953125h4.75v9.53125H2.375Z" stroke-width="3.125"></path></g></svg>