<svg xmlns="http://www.w3.org/2000/svg" viewBox="0 0 100 100" id="Business-Products-Deal-Handshake--Streamline-Pixel" height="100" width="100"><desc>Business Products Deal Handshake Streamline Icon: https://streamlinehq.com</desc><title>business-products-deal-handshake</title><g><path d="M95.25 23.8125H100v4.75h-4.75Z" fill="#000000" stroke-width="3.125"></path><path d="m85.71875 47.625 0 4.75 -9.5 0 0 4.78125 9.5 0 0 28.5625 -19.03125 0 0 4.75 19.03125 0 0 4.78125 14.28125 0 0 -47.625 -14.28125 0z" fill="#000000" stroke-width="3.125"></path><path d="M90.5 28.5625h4.75v4.78125h-4.75Z" fill="#000000" stroke-width="3.125"></path><path d="M85.71875 23.8125h4.78125v4.75h-4.78125Z" fill="#000000" stroke-width="3.125"></path><path d="M80.96875 28.5625h4.75v4.78125h-4.75Z" fill="#000000" stroke-width="3.125"></path><path d="M80.96875 4.78125h4.75v4.75h-4.75Z" fill="#000000" stroke-width="3.125"></path><path d="M76.21875 23.8125h4.75v4.75h-4.75Z" fill="#000000" stroke-width="3.125"></path><path d="M71.4375 47.625h4.78125v4.75h-4.78125Z" fill="#000000" stroke-width="3.125"></path><path d="M66.6875 42.875h4.75v4.75h-4.75Z" fill="#000000" stroke-width="3.125"></path><path d="m66.6875 71.4375 -4.78125 0 0 9.53125 -9.5 0 0 9.5 4.75 0 0 -4.75 9.53125 0 0 -14.28125z" fill="#000000" stroke-width="3.125"></path><path d="M57.15625 66.6875h4.75v4.75h-4.75Z" fill="#000000" stroke-width="3.125"></path><path d="M57.15625 9.53125h4.75v4.75h-4.75Z" fill="#000000" stroke-width="3.125"></path><path d="M52.40625 61.90624999999999h4.75v4.78125h-4.75Z" fill="#000000" stroke-width="3.125"></path><path d="M52.40625 52.37500000000001h4.75v4.78125h-4.75Z" fill="#000000" stroke-width="3.125"></path><path d="M47.625 38.09375h19.0625v4.78125h-19.0625Z" fill="#000000" stroke-width="3.125"></path><path d="M52.40625 14.28125h4.75V19.0625h-4.75Z" fill="#000000" stroke-width="3.125"></path><path d="M52.40625 4.78125h4.75v4.75h-4.75Z" fill="#000000" stroke-width="3.125"></path><path d="M47.625 76.1875h4.78125v4.78125h-4.78125Z" fill="#000000" stroke-width="3.125"></path><path d="M47.625 57.15625h4.78125v4.75h-4.78125Z" fill="#000000" stroke-width="3.125"></path><path d="M47.625 9.53125h4.78125v4.75h-4.78125Z" fill="#000000" stroke-width="3.125"></path><path d="m42.875 95.25 -14.28125 0 0 4.75 19.03125 0 0 -4.75 4.78125 0 0 -4.78125 -9.53125 0 0 4.78125z" fill="#000000" stroke-width="3.125"></path><path d="M42.875 42.875h4.75v4.75h-4.75Z" fill="#000000" stroke-width="3.125"></path><path d="M38.09375 85.71875h4.78125v4.75h-4.78125Z" fill="#000000" stroke-width="3.125"></path><path d="M38.09375 61.90624999999999h9.53125v4.78125h-9.53125Z" fill="#000000" stroke-width="3.125"></path><path d="M38.09375 47.625h4.78125v4.75h-4.78125Z" fill="#000000" stroke-width="3.125"></path><path d="M33.34375 38.09375h9.53125v4.78125h-9.53125Z" fill="#000000" stroke-width="3.125"></path><path d="M33.34375 80.96875h4.75v4.75h-4.75Z" fill="#000000" stroke-width="3.125"></path><path d="M33.34375 52.37500000000001h4.75v9.53125h-4.75Z" fill="#000000" stroke-width="3.125"></path><path d="M33.34375 19.0625h4.75v4.75h-4.75Z" fill="#000000" stroke-width="3.125"></path><path d="M28.59375 42.875h4.75v4.75H28.59375Z" fill="#000000" stroke-width="3.125"></path><path d="M23.8125 90.46875h4.78125v4.78125H23.8125Z" fill="#000000" stroke-width="3.125"></path><path d="M23.8125 47.625h4.78125v4.75H23.8125Z" fill="#000000" stroke-width="3.125"></path><path d="m14.3125 85.71875 0 -28.5625 9.5 0 0 -4.78125 -9.5 0 0 -4.75 -14.3125 0 0 47.625 14.3125 0 0 -4.78125 9.5 0 0 -4.75 -9.5 0z" fill="#000000" stroke-width="3.125"></path><path d="M19.0625 0h4.75v4.78125H19.0625Z" fill="#000000" stroke-width="3.125"></path><path d="m14.3125 38.09375 0 -4.75 4.75 0 0 -4.78125 -4.75 0 0 -4.75 -4.78125 0 0 4.75 -4.75 0 0 4.78125 4.75 0 0 4.75 4.78125 0z" fill="#000000" stroke-width="3.125"></path></g></svg>