<svg xmlns="http://www.w3.org/2000/svg" viewBox="0 0 100 100" id="Design-Crop-Edit-Picture--Streamline-Pixel" height="100" width="100"><desc>Design Crop Edit Picture Streamline Icon: https://streamlinehq.com</desc><title>design-crop-edit-picture</title><g><path d="M90.46875 76.1875V9.53125H23.8125V0H9.53125v9.53125H0v14.28125h9.53125v66.65625h66.65625V100h14.28125v-9.53125H100v-14.28125Zm4.78125 9.53125h-9.53125v9.53125h-4.75v-9.53125H14.28125V19.0625H4.78125V14.28125h9.5V4.75H19.0625v9.53125h66.65625v66.6875h9.53125Z" fill="#000000" stroke-width="3.125"></path><path d="M19.0625 19.0625v61.90624999999999h61.90624999999999V19.0625Zm57.125 28.5625h-14.28125v4.75h14.28125v23.8125h-14.28125v-4.75h-4.75v4.75H23.8125v-4.75h4.78125v-4.78125H23.8125V23.8125h52.37500000000001Z" fill="#000000" stroke-width="3.125"></path><path d="M57.15625 52.37500000000001h4.75v4.78125h-4.75Z" fill="#000000" stroke-width="3.125"></path><path d="M52.37500000000001 57.15625h4.78125v4.75h-4.78125Z" fill="#000000" stroke-width="3.125"></path><path d="M52.37500000000001 66.65625h4.78125v4.78125h-4.78125Z" fill="#000000" stroke-width="3.125"></path><path d="M47.625 61.90624999999999h4.75v4.75h-4.75Z" fill="#000000" stroke-width="3.125"></path><path d="m33.34375 47.625 9.53125 0 0 -4.78125 4.75 0 0 -9.5 -4.75 0 0 -4.78125 -9.53125 0 0 4.78125 -4.75 0 0 9.5 4.75 0 0 4.78125z" fill="#000000" stroke-width="3.125"></path><path d="M33.34375 57.15625h14.28125v4.75h-14.28125Z" fill="#000000" stroke-width="3.125"></path><path d="M28.59375 61.90624999999999h4.75v4.75H28.59375Z" fill="#000000" stroke-width="3.125"></path></g></svg>