<svg xmlns="http://www.w3.org/2000/svg" viewBox="0 0 100 100" id="Ecology-Growth-Plant--Streamline-Pixel" height="100" width="100"><desc>Ecology Growth Plant Streamline Icon: https://streamlinehq.com</desc><title>ecology-growth-plant</title><g><path d="m95.25 76.1875 4.75 0 0 -28.5625 -4.75 0 0 4.78125 -4.78125 0 0 4.75 4.78125 0 0 19.03125z" fill="#000000" stroke-width="3.125"></path><path d="M90.46875 76.1875h4.78125v4.78125h-4.78125Z" fill="#000000" stroke-width="3.125"></path><path d="M85.71875 80.96875h4.75v4.75h-4.75Z" fill="#000000" stroke-width="3.125"></path><path d="M85.71875 66.6875h4.75v4.75h-4.75Z" fill="#000000" stroke-width="3.125"></path><path d="M76.1875 71.4375h9.53125v4.75h-9.53125Z" fill="#000000" stroke-width="3.125"></path><path d="M76.1875 85.71875h9.53125v4.78125h-9.53125Z" fill="#000000" stroke-width="3.125"></path><path d="M71.4375 57.15625h19.03125v4.75h-19.03125Z" fill="#000000" stroke-width="3.125"></path><path d="m85.71875 14.28125 4.75 0 0 -4.75 4.78125 0 0 -4.75 -4.78125 0 0 -4.78125 -4.75 0 0 4.78125 -4.75 0 0 -4.78125 -4.78125 0 0 4.78125 -4.75 0 0 4.75 4.75 0 0 4.75 4.78125 0 0 4.78125 4.75 0 0 -4.78125z" fill="#000000" stroke-width="3.125"></path><path d="M66.65625 76.1875h9.53125v4.78125h-9.53125Z" fill="#000000" stroke-width="3.125"></path><path d="M57.15625 90.5h19.03125v4.75h-19.03125Z" fill="#000000" stroke-width="3.125"></path><path d="M61.90624999999999 61.90624999999999h9.53125v4.78125h-9.53125Z" fill="#000000" stroke-width="3.125"></path><path d="m42.875 61.90624999999999 0 4.78125 -14.3125 0 0 4.75 14.3125 0 0 28.5625 4.75 0 0 -14.28125 4.75 0 0 4.78125 4.78125 0 0 -4.78125 9.5 0 0 -4.75 -14.28125 0 0 -4.78125 -4.75 0 0 -9.5 4.75 0 0 -23.8125 -4.75 0 0 19.03125 -4.75 0z" fill="#000000" stroke-width="3.125"></path><path d="M57.15625 66.6875h4.75v4.75h-4.75Z" fill="#000000" stroke-width="3.125"></path><path d="m71.4375 52.40625 0 -4.78125 4.75 0 0 -4.75 4.78125 0 0 -4.78125 4.75 0 0 -9.5 -4.75 0 0 -4.78125 -9.53125 0 0 4.78125 -4.78125 0 0 -4.78125 -9.5 0 0 4.78125 -4.78125 0 0 9.5 4.78125 0 0 4.78125 4.75 0 0 4.75 4.75 0 0 4.78125 4.78125 0z" fill="#000000" stroke-width="3.125"></path><path d="M52.37500000000001 71.4375h4.78125v4.75h-4.78125Z" fill="#000000" stroke-width="3.125"></path><path d="M42.875 38.09375h4.75v4.78125h-4.75Z" fill="#000000" stroke-width="3.125"></path><path d="M38.09375 52.40625h4.78125v9.5h-4.78125Z" fill="#000000" stroke-width="3.125"></path><path d="M38.09375 33.34375h4.78125v4.75h-4.78125Z" fill="#000000" stroke-width="3.125"></path><path d="M33.34375 47.625h4.75v4.78125h-4.75Z" fill="#000000" stroke-width="3.125"></path><path d="M23.8125 42.875h9.53125v4.75H23.8125Z" fill="#000000" stroke-width="3.125"></path><path d="M28.5625 28.59375h9.53125v4.75H28.5625Z" fill="#000000" stroke-width="3.125"></path><path d="M19.0625 61.90624999999999h9.5v4.78125H19.0625Z" fill="#000000" stroke-width="3.125"></path><path d="M19.0625 38.09375h4.75v4.78125H19.0625Z" fill="#000000" stroke-width="3.125"></path><path d="M14.28125 57.15625H19.0625v4.75H14.28125Z" fill="#000000" stroke-width="3.125"></path><path d="M14.28125 33.34375H19.0625v4.75H14.28125Z" fill="#000000" stroke-width="3.125"></path><path d="M14.28125 23.8125h14.28125v4.78125H14.28125Z" fill="#000000" stroke-width="3.125"></path><path d="M9.53125 47.625h4.75v9.53125H9.53125Z" fill="#000000" stroke-width="3.125"></path><path d="M9.53125 19.0625h4.75v4.75H9.53125Z" fill="#000000" stroke-width="3.125"></path><path d="M4.75 38.09375h4.78125v9.53125H4.75Z" fill="#000000" stroke-width="3.125"></path><path d="m4.75 19.0625 4.78125 0 0 -4.78125 -9.53125 0 0 23.8125 4.75 0 0 -19.03125z" fill="#000000" stroke-width="3.125"></path></g></svg>