<svg xmlns="http://www.w3.org/2000/svg" viewBox="0 0 100 100" id="Ecology-Clean-Battery--Streamline-Pixel" height="100" width="100"><desc>Ecology Clean Battery Streamline Icon: https://streamlinehq.com</desc><title>ecology-clean-battery</title><g><path d="m90.46875 35.703125 0 4.78125 4.78125 0 0 19.03125 4.75 0 0 -23.8125 -9.53125 0z" fill="#000000" stroke-width="3.125"></path><path d="M90.46875 59.51562500000001h4.78125v9.53125h-4.78125Z" fill="#000000" stroke-width="3.125"></path><path d="M85.71875 69.046875h4.75v9.53125h-4.75Z" fill="#000000" stroke-width="3.125"></path><path d="M85.71875 40.484375h4.75v4.75h-4.75Z" fill="#000000" stroke-width="3.125"></path><path d="M80.96875 78.578125h4.75v4.75h-4.75Z" fill="#000000" stroke-width="3.125"></path><path d="M80.96875 54.76562499999999h4.75v4.75h-4.75Z" fill="#000000" stroke-width="3.125"></path><path d="M76.1875 59.51562500000001h4.78125v4.78125h-4.78125Z" fill="#000000" stroke-width="3.125"></path><path d="M71.4375 45.234375h14.28125v4.78125h-14.28125Z" fill="#000000" stroke-width="3.125"></path><path d="M71.4375 83.328125h9.53125v4.78125h-9.53125Z" fill="#000000" stroke-width="3.125"></path><path d="M66.65625 64.296875h9.53125v4.75h-9.53125Z" fill="#000000" stroke-width="3.125"></path><path d="M61.90624999999999 50.015625h9.53125v4.75h-9.53125Z" fill="#000000" stroke-width="3.125"></path><path d="m57.15625 88.109375 0 -4.78125 -9.53125 0 0 4.78125 4.75 0 0 9.5 4.78125 0 0 -4.75 14.28125 0 0 -4.75 -14.28125 0z" fill="#000000" stroke-width="3.125"></path><path d="M61.90624999999999 69.046875h4.75v4.75h-4.75Z" fill="#000000" stroke-width="3.125"></path><path d="M57.15625 73.796875h4.75v9.53125h-4.75Z" fill="#000000" stroke-width="3.125"></path><path d="M57.15625 54.76562499999999h4.75v4.75h-4.75Z" fill="#000000" stroke-width="3.125"></path><path d="M52.37500000000001 59.51562500000001h4.78125v4.78125h-4.78125Z" fill="#000000" stroke-width="3.125"></path><path d="M47.625 64.296875h4.75v4.75h-4.75Z" fill="#000000" stroke-width="3.125"></path><path d="M42.875 69.046875h4.75v14.28125h-4.75Z" fill="#000000" stroke-width="3.125"></path><path d="M9.53125 40.484375h38.09375v9.53125H9.53125Z" fill="#000000" stroke-width="3.125"></path><path d="M9.53125 26.203125h38.09375v4.75H9.53125Z" fill="#000000" stroke-width="3.125"></path><path d="m42.875 59.51562500000001 4.75 0 0 -4.75 -38.09375 0 0 9.53125 33.34375 0 0 -4.78125z" fill="#000000" stroke-width="3.125"></path><path d="m42.875 92.859375 -38.125 0 0 -76.1875 14.3125 0 0 -9.53125 19.03125 0 0 9.53125 14.28125 0 0 33.34375 4.78125 0 0 -38.125 -14.28125 0 0 -9.5 -28.59375 0 0 9.5 -14.28125 0 0 85.71875 42.875 0 0 -4.75z" fill="#000000" stroke-width="3.125"></path><path d="M9.53125 69.046875h28.5625v14.28125H9.53125Z" fill="#000000" stroke-width="3.125"></path></g></svg>