<svg xmlns="http://www.w3.org/2000/svg" viewBox="0 0 100 100" id="Email-Envelope-Close--Streamline-Pixel" height="100" width="100"><desc>Email Envelope Close Streamline Icon: https://streamlinehq.com</desc><title>email-envelope-close</title><g><path d="M95.21875 19.0625H100v61.875h-4.78125Z" fill="#000000" stroke-width="3.125"></path><path d="M90.46875 80.9375h4.75v4.78125h-4.75Z" fill="#000000" stroke-width="3.125"></path><path d="M90.46875 14.28125h4.75V19.0625h-4.75Z" fill="#000000" stroke-width="3.125"></path><path d="M85.71875 23.8125h4.75v9.53125h-4.75Z" fill="#000000" stroke-width="3.125"></path><path d="M9.53125 85.71875h80.9375v4.75H9.53125Z" fill="#000000" stroke-width="3.125"></path><path d="M80.9375 71.4375h4.78125v4.75H80.9375Z" fill="#000000" stroke-width="3.125"></path><path d="M80.9375 33.34375h4.78125v4.75H80.9375Z" fill="#000000" stroke-width="3.125"></path><path d="M76.1875 66.65625h4.75v4.78125h-4.75Z" fill="#000000" stroke-width="3.125"></path><path d="M76.1875 38.09375h4.75v4.75h-4.75Z" fill="#000000" stroke-width="3.125"></path><path d="M71.40625 61.90624999999999h4.78125v4.75h-4.78125Z" fill="#000000" stroke-width="3.125"></path><path d="M71.40625 42.84375h4.78125v4.78125h-4.78125Z" fill="#000000" stroke-width="3.125"></path><path d="M66.65625 57.15625h4.75v4.75h-4.75Z" fill="#000000" stroke-width="3.125"></path><path d="M66.65625 47.625h4.75v4.75h-4.75Z" fill="#000000" stroke-width="3.125"></path><path d="M57.125 52.37500000000001h9.53125v4.78125h-9.53125Z" fill="#000000" stroke-width="3.125"></path><path d="M42.84375 57.15625h14.28125v4.75h-14.28125Z" fill="#000000" stroke-width="3.125"></path><path d="M33.3125 52.37500000000001h9.53125v4.78125h-9.53125Z" fill="#000000" stroke-width="3.125"></path><path d="M28.5625 57.15625h4.75v4.75H28.5625Z" fill="#000000" stroke-width="3.125"></path><path d="M28.5625 47.625h4.75v4.75H28.5625Z" fill="#000000" stroke-width="3.125"></path><path d="M23.8125 61.90624999999999h4.75v4.75H23.8125Z" fill="#000000" stroke-width="3.125"></path><path d="M23.8125 42.84375h4.75v4.78125H23.8125Z" fill="#000000" stroke-width="3.125"></path><path d="M19.03125 66.65625h4.78125v4.78125H19.03125Z" fill="#000000" stroke-width="3.125"></path><path d="M19.03125 38.09375h4.78125v4.75H19.03125Z" fill="#000000" stroke-width="3.125"></path><path d="M14.28125 71.4375h4.75v4.75H14.28125Z" fill="#000000" stroke-width="3.125"></path><path d="M14.28125 33.34375h4.75v4.75H14.28125Z" fill="#000000" stroke-width="3.125"></path><path d="M9.53125 9.53125h80.9375v4.75H9.53125Z" fill="#000000" stroke-width="3.125"></path><path d="M9.53125 23.8125h4.75v9.53125H9.53125Z" fill="#000000" stroke-width="3.125"></path><path d="M4.75 80.9375h4.78125v4.78125H4.75Z" fill="#000000" stroke-width="3.125"></path><path d="M4.75 14.28125h4.78125V19.0625H4.75Z" fill="#000000" stroke-width="3.125"></path><path d="M0 19.0625h4.75v61.875H0Z" fill="#000000" stroke-width="3.125"></path></g></svg>