<svg xmlns="http://www.w3.org/2000/svg" viewBox="0 0 100 100" id="Hand-Awesome--Streamline-Pixel" height="100" width="100"><desc>Hand Awesome Streamline Icon: https://streamlinehq.com</desc><title>hand-awesome</title><g><path d="M33.328125 30.953124999999996h4.78125v4.75h-4.78125Z" fill="#000000" stroke-width="3.125"></path><path d="M28.578125 88.125V40.484375h4.75v-4.78125h-4.75V30.9375h-19.0625v66.65625h19.0625v-4.75H38.125V88.125ZM23.796875 50H19.0625v-9.5h4.75Z" fill="#000000" stroke-width="3.125"></path><path d="M38.109375 26.203125h4.75v4.75h-4.75Z" fill="#000000" stroke-width="3.125"></path><path d="M42.859375 7.140625h4.75v19.0625h-4.75Z" fill="#000000" stroke-width="3.125"></path><path d="M47.609375 40.484375h4.78125v4.75h-4.78125Z" fill="#000000" stroke-width="3.125"></path><path d="M47.609375 2.390625h9.53125v4.75h-9.53125Z" fill="#000000" stroke-width="3.125"></path><path d="M52.390625 35.703125h4.75v4.78125h-4.75Z" fill="#000000" stroke-width="3.125"></path><path d="M52.390625 54.76562499999999h4.75v9.53125h-4.75Z" fill="#000000" stroke-width="3.125"></path><path d="M52.390625 69.046875h4.75v9.53125h-4.75Z" fill="#000000" stroke-width="3.125"></path><path d="M57.140625 7.140625h4.75v4.75h-4.75Z" fill="#000000" stroke-width="3.125"></path><path d="M57.140625 30.953124999999996h4.75v4.75h-4.75Z" fill="#000000" stroke-width="3.125"></path><path d="M61.890625 11.890625h4.78125v19.0625h-4.78125Z" fill="#000000" stroke-width="3.125"></path><path d="M61.890625 35.703125h23.8125v4.78125h-23.8125Z" fill="#000000" stroke-width="3.125"></path><path d="m66.671875 88.109375 -4.78125 0 0 4.75 -23.78125 0 0 4.75 38.09375 0 0 -4.75 -9.53125 0 0 -4.75z" fill="#000000" stroke-width="3.125"></path><path d="m57.140625 78.578125 0 9.53125 4.75 0 0 -4.78125 19.0625 0 0 4.78125 4.75 0 0 -9.53125 -28.5625 0z" fill="#000000" stroke-width="3.125"></path><path d="M76.203125 88.109375h4.75v4.75h-4.75Z" fill="#000000" stroke-width="3.125"></path><path d="m85.703125 49.984375 -23.8125 0 0 -9.5 -4.75 0 0 14.28125 28.5625 0 0 9.53125 -28.5625 0 0 4.75 28.5625 0 0 9.53125 4.78125 0 0 -38.09375 -4.78125 0 0 9.5z" fill="#000000" stroke-width="3.125"></path></g></svg>