<svg xmlns="http://www.w3.org/2000/svg" viewBox="0 0 100 100" id="Hand-Love-Sign--Streamline-Pixel" height="100" width="100"><desc>Hand Love Sign Streamline Icon: https://streamlinehq.com</desc><title>hand-love-sign</title><g><path d="M83.34375 14.28125h4.75v61.90624999999999h-4.75Z" fill="#000000" stroke-width="3.125"></path><path d="M78.5625 85.71875H30.96875v-4.75H26.187500000000004v4.75H21.4375V100h66.65625v-14.28125h-4.75v-9.53125h-4.78125Zm0 9.53125H69.0625v-4.78125h9.5Z" fill="#000000" stroke-width="3.125"></path><path d="M73.8125 9.53125h9.53125v4.75h-9.53125Z" fill="#000000" stroke-width="3.125"></path><path d="M59.53125 57.15625h9.53125v4.75h-9.53125Z" fill="#000000" stroke-width="3.125"></path><path d="M35.71875 61.90624999999999H50v4.75h-14.28125Z" fill="#000000" stroke-width="3.125"></path><path d="m40.46875 42.84375 -4.75 0 0 4.78125 9.53125 0 0 -14.28125 9.53125 0 0 14.28125 -9.53125 0 0 4.75 4.75 0 0 9.53125 4.78125 0 0 -4.75 4.75 0 0 -23.8125 9.53125 0 0 23.8125 4.75 0 0 -42.875 -4.75 0 0 14.28125 -23.8125 0 0 -23.8125 -4.78125 0 0 38.09375z" fill="#000000" stroke-width="3.125"></path><path d="M30.96875 0h9.5v4.75H30.96875Z" fill="#000000" stroke-width="3.125"></path><path d="M30.96875 57.15625h4.75v4.75H30.96875Z" fill="#000000" stroke-width="3.125"></path><path d="m35.71875 42.84375 0 -4.75 -4.75 0 0 -33.34375 -4.78125 0 0 33.34375 -4.75 0 0 4.75 14.28125 0z" fill="#000000" stroke-width="3.125"></path><path d="M21.4375 76.1875h4.75v4.78125H21.4375Z" fill="#000000" stroke-width="3.125"></path><path d="M16.6875 66.65625h4.75v9.53125H16.6875Z" fill="#000000" stroke-width="3.125"></path><path d="M16.6875 42.84375h4.75v4.78125H16.6875Z" fill="#000000" stroke-width="3.125"></path><path d="M11.90625 47.625h4.78125v19.03125H11.90625Z" fill="#000000" stroke-width="3.125"></path></g></svg>