<svg xmlns="http://www.w3.org/2000/svg" viewBox="0 0 100 100" id="Hand-Cross-Finger-Heart--Streamline-Pixel" height="100" width="100"><desc>Hand Cross Finger Heart Streamline Icon: https://streamlinehq.com</desc><title>hand-cross-finger-heart</title><g><path d="M83.34375 85.71875h4.75V100h-4.75Z" fill="#000000" stroke-width="3.125"></path><path d="M78.5625 80.96875h4.78125v4.75h-4.78125Z" fill="#000000" stroke-width="3.125"></path><path d="M73.8125 85.71875h4.75v4.75h-4.75Z" fill="#000000" stroke-width="3.125"></path><path d="M73.8125 76.1875h4.75v4.78125h-4.75Z" fill="#000000" stroke-width="3.125"></path><path d="M69.03125 90.46875h4.78125v4.78125h-4.78125Z" fill="#000000" stroke-width="3.125"></path><path d="M64.28125 71.4375h9.53125v4.75h-9.53125Z" fill="#000000" stroke-width="3.125"></path><path d="M69.03125 33.34375h4.78125v14.28125h-4.78125Z" fill="#000000" stroke-width="3.125"></path><path d="M64.28125 95.25h4.75V100h-4.75Z" fill="#000000" stroke-width="3.125"></path><path d="M64.28125 47.625h4.75v4.75h-4.75Z" fill="#000000" stroke-width="3.125"></path><path d="M59.53125 28.5625h9.5v4.78125h-9.5Z" fill="#000000" stroke-width="3.125"></path><path d="M59.53125 76.1875h4.75v4.78125h-4.75Z" fill="#000000" stroke-width="3.125"></path><path d="M54.75 66.65625h9.53125v4.78125h-9.53125Z" fill="#000000" stroke-width="3.125"></path><path d="M59.53125 52.37500000000001h4.75v4.78125h-4.75Z" fill="#000000" stroke-width="3.125"></path><path d="M54.75 80.96875h4.78125v4.75h-4.78125Z" fill="#000000" stroke-width="3.125"></path><path d="M54.75 57.15625h4.78125v4.75h-4.78125Z" fill="#000000" stroke-width="3.125"></path><path d="M54.75 33.34375h4.78125v4.75h-4.78125Z" fill="#000000" stroke-width="3.125"></path><path d="M50 85.71875h4.75v4.75H50Z" fill="#000000" stroke-width="3.125"></path><path d="M50 61.90624999999999h4.75v4.75H50Z" fill="#000000" stroke-width="3.125"></path><path d="M50 38.09375h4.75v4.75H50Z" fill="#000000" stroke-width="3.125"></path><path d="M45.25 66.65625H50v4.78125h-4.75Z" fill="#000000" stroke-width="3.125"></path><path d="M45.25 42.84375H50v4.78125h-4.75Z" fill="#000000" stroke-width="3.125"></path><path d="M40.46875 71.4375h4.78125v4.75h-4.78125Z" fill="#000000" stroke-width="3.125"></path><path d="M40.46875 47.625h4.78125v4.75h-4.78125Z" fill="#000000" stroke-width="3.125"></path><path d="M35.71875 52.37500000000001h4.75v4.78125h-4.75Z" fill="#000000" stroke-width="3.125"></path><path d="M35.71875 38.09375h4.75v9.53125h-4.75Z" fill="#000000" stroke-width="3.125"></path><path d="M30.9375 57.15625h4.78125v4.75H30.9375Z" fill="#000000" stroke-width="3.125"></path><path d="m30.9375 0 0 4.75 -4.75 0 0 9.53125 4.75 0 0 4.78125 4.78125 0 0 4.75 4.75 0 0 4.75 4.78125 0 0 -4.75 4.75 0 0 -4.75 4.75 0 0 -4.78125 4.78125 0 0 -9.53125 -4.78125 0 0 -4.75 -9.5 0 0 4.75 -4.78125 0 0 -4.75L30.9375 0z" fill="#000000" stroke-width="3.125"></path><path d="M21.4375 33.34375h14.28125v4.75H21.4375Z" fill="#000000" stroke-width="3.125"></path><path d="m26.187500000000004 52.37500000000001 -4.75 0 0 19.0625 4.75 0 0 -4.78125 4.75 0 0 -4.75 -4.75 0 0 -9.53125z" fill="#000000" stroke-width="3.125"></path><path d="M16.65625 71.4375h4.78125v4.75H16.65625Z" fill="#000000" stroke-width="3.125"></path><path d="M16.65625 38.09375h4.78125v14.28125H16.65625Z" fill="#000000" stroke-width="3.125"></path><path d="M11.90625 76.1875h4.75V100H11.90625Z" fill="#000000" stroke-width="3.125"></path></g></svg>