<svg xmlns="http://www.w3.org/2000/svg" viewBox="0 0 100 100" id="Interface-Essential-Alert-Triangle-1--Streamline-Pixel" height="100" width="100"><desc>Interface Essential Alert Triangle 1 Streamline Icon: https://streamlinehq.com</desc><title>interface-essential-alert-triangle-1</title><g><path d="M95.25 85.71875H100v9.53125h-4.75Z" fill="#000000" stroke-width="3.125"></path><path d="M90.46875 76.1875h4.78125v9.53125h-4.78125Z" fill="#000000" stroke-width="3.125"></path><path d="M4.75 95.25h90.5V100H4.75Z" fill="#000000" stroke-width="3.125"></path><path d="M85.71875 66.65625h4.75v9.53125h-4.75Z" fill="#000000" stroke-width="3.125"></path><path d="M80.9375 57.15625h4.78125v9.5H80.9375Z" fill="#000000" stroke-width="3.125"></path><path d="M76.1875 47.625h4.75v9.53125h-4.75Z" fill="#000000" stroke-width="3.125"></path><path d="M71.4375 38.09375h4.75v9.53125h-4.75Z" fill="#000000" stroke-width="3.125"></path><path d="M66.65625 28.5625h4.78125v9.53125h-4.78125Z" fill="#000000" stroke-width="3.125"></path><path d="M61.90624999999999 19.03125h4.75v9.53125h-4.75Z" fill="#000000" stroke-width="3.125"></path><path d="M57.15625 9.53125h4.75v9.5h-4.75Z" fill="#000000" stroke-width="3.125"></path><path d="m57.15625 66.65625 -14.3125 0 0 4.78125 -4.75 0 0 14.28125 4.75 0 0 4.75 14.3125 0 0 -4.75 4.75 0 0 -14.28125 -4.75 0 0 -4.78125z" fill="#000000" stroke-width="3.125"></path><path d="M57.15625 28.5625h-14.3125v4.78125h-4.75v19.03125h4.75v9.53125h14.3125v-9.53125h4.75v-19.03125h-4.75Zm0 19.0625h-4.78125v-9.53125h-4.75v-4.75h4.75v4.75h4.78125Z" fill="#000000" stroke-width="3.125"></path><path d="M52.37500000000001 4.75h4.78125v4.78125h-4.78125Z" fill="#000000" stroke-width="3.125"></path><path d="M47.625 0h4.75v4.75h-4.75Z" fill="#000000" stroke-width="3.125"></path><path d="M42.84375 4.75h4.78125v4.78125h-4.78125Z" fill="#000000" stroke-width="3.125"></path><path d="M38.09375 9.53125h4.75v9.5h-4.75Z" fill="#000000" stroke-width="3.125"></path><path d="M33.34375 19.03125h4.75v9.53125h-4.75Z" fill="#000000" stroke-width="3.125"></path><path d="M28.5625 28.5625h4.78125v9.53125H28.5625Z" fill="#000000" stroke-width="3.125"></path><path d="M23.8125 38.09375h4.75v9.53125H23.8125Z" fill="#000000" stroke-width="3.125"></path><path d="M19.03125 47.625h4.78125v9.53125H19.03125Z" fill="#000000" stroke-width="3.125"></path><path d="M14.28125 57.15625h4.75v9.5H14.28125Z" fill="#000000" stroke-width="3.125"></path><path d="M9.53125 66.65625h4.75v9.53125H9.53125Z" fill="#000000" stroke-width="3.125"></path><path d="M4.75 76.1875h4.78125v9.53125H4.75Z" fill="#000000" stroke-width="3.125"></path><path d="M0 85.71875h4.75v9.53125H0Z" fill="#000000" stroke-width="3.125"></path></g></svg>