<svg xmlns="http://www.w3.org/2000/svg" viewBox="0 0 100 100" id="Interface-Essential-View-Eye--Streamline-Pixel" height="100" width="100"><desc>Interface Essential View Eye Streamline Icon: https://streamlinehq.com</desc><title>interface-essential-view-eye</title><g><path d="M92.84375 45.234375h4.78125v9.53125h-4.78125Z" fill="#000000" stroke-width="3.125"></path><path d="M88.09375 54.76562499999999h4.75v4.75h-4.75Z" fill="#000000" stroke-width="3.125"></path><path d="M88.09375 40.484375h4.75v4.75h-4.75Z" fill="#000000" stroke-width="3.125"></path><path d="M83.34375 59.51562500000001h4.75v4.78125h-4.75Z" fill="#000000" stroke-width="3.125"></path><path d="M83.34375 35.703125h4.75v4.78125h-4.75Z" fill="#000000" stroke-width="3.125"></path><path d="M73.8125 64.296875h9.53125v4.75h-9.53125Z" fill="#000000" stroke-width="3.125"></path><path d="M73.8125 30.953124999999996h9.53125v4.75h-9.53125Z" fill="#000000" stroke-width="3.125"></path><path d="M64.28125 69.046875h9.53125v4.75h-9.53125Z" fill="#000000" stroke-width="3.125"></path><path d="M64.28125 40.484375h4.75v19.03125h-4.75Z" fill="#000000" stroke-width="3.125"></path><path d="M64.28125 26.203125h9.53125v4.75h-9.53125Z" fill="#000000" stroke-width="3.125"></path><path d="M59.53125 59.51562500000001h4.75v4.78125h-4.75Z" fill="#000000" stroke-width="3.125"></path><path d="M59.53125 35.703125h4.75v4.78125h-4.75Z" fill="#000000" stroke-width="3.125"></path><path d="M35.71875 73.796875h28.5625v4.78125h-28.5625Z" fill="#000000" stroke-width="3.125"></path><path d="M40.46875 64.296875h19.0625v4.75h-19.0625Z" fill="#000000" stroke-width="3.125"></path><path d="m54.75 40.484375 -9.5 0 0 4.75 -4.78125 0 0 9.53125 4.78125 0 0 4.75 9.5 0 0 -4.75 4.78125 0 0 -9.53125 -4.78125 0 0 -4.75z" fill="#000000" stroke-width="3.125"></path><path d="M40.46875 30.953124999999996h19.0625v4.75h-19.0625Z" fill="#000000" stroke-width="3.125"></path><path d="M35.71875 21.421875h28.5625v4.78125h-28.5625Z" fill="#000000" stroke-width="3.125"></path><path d="M35.71875 59.51562500000001h4.75v4.78125h-4.75Z" fill="#000000" stroke-width="3.125"></path><path d="M35.71875 35.703125h4.75v4.78125h-4.75Z" fill="#000000" stroke-width="3.125"></path><path d="M26.187500000000004 69.046875h9.53125v4.75H26.187500000000004Z" fill="#000000" stroke-width="3.125"></path><path d="M30.9375 40.484375h4.78125v19.03125H30.9375Z" fill="#000000" stroke-width="3.125"></path><path d="M26.187500000000004 26.203125h9.53125v4.75H26.187500000000004Z" fill="#000000" stroke-width="3.125"></path><path d="M16.65625 64.296875h9.53125v4.75H16.65625Z" fill="#000000" stroke-width="3.125"></path><path d="M16.65625 30.953124999999996h9.53125v4.75H16.65625Z" fill="#000000" stroke-width="3.125"></path><path d="M11.90625 59.51562500000001h4.75v4.78125H11.90625Z" fill="#000000" stroke-width="3.125"></path><path d="M11.90625 35.703125h4.75v4.78125H11.90625Z" fill="#000000" stroke-width="3.125"></path><path d="M7.15625 54.76562499999999h4.75v4.75H7.15625Z" fill="#000000" stroke-width="3.125"></path><path d="M7.15625 40.484375h4.75v4.75H7.15625Z" fill="#000000" stroke-width="3.125"></path><path d="M2.375 45.234375h4.78125v9.53125H2.375Z" fill="#000000" stroke-width="3.125"></path></g></svg>