<svg xmlns="http://www.w3.org/2000/svg" viewBox="0 0 100 100" id="Interface-Essential-Global-Public--Streamline-Pixel" height="100" width="100"><desc>Interface Essential Global Public Streamline Icon: https://streamlinehq.com</desc><title>interface-essential-global-public</title><g><path d="m71.40625 23.8125 0 9.53125 -4.75 0 0 14.28125 4.75 0 0 4.75 4.78125 0 0 4.78125 -14.28125 0 0 4.75 -4.78125 0 0 4.75 14.28125 0 0 9.53125 -4.75 0 0 9.53125 4.75 0 0 4.75 9.53125 0 0 -4.75 4.78125 0 0 -4.78125 4.75 0 0 -9.5 4.75 0 0 -9.53125 4.78125 0 0 -23.8125 -4.78125 0 0 -9.53125 -4.75 0 0 -9.5 -4.75 0 0 4.75 -14.3125 0z" fill="#000000" stroke-width="3.125"></path><path d="M80.9375 14.28125h4.78125V19.0625H80.9375Z" fill="#000000" stroke-width="3.125"></path><path d="M71.40625 9.53125h9.53125v4.75h-9.53125Z" fill="#000000" stroke-width="3.125"></path><path d="M61.90624999999999 90.46875h9.5v4.78125h-9.5Z" fill="#000000" stroke-width="3.125"></path><path d="M61.90624999999999 4.75h9.5v4.78125h-9.5Z" fill="#000000" stroke-width="3.125"></path><path d="m52.37500000000001 90.46875 -4.75 0 0 -4.75 -14.3125 0 0 4.75 -4.75 0 0 4.78125 9.53125 0 0 4.75 23.8125 0 0 -4.75 -9.53125 0 0 -4.78125z" fill="#000000" stroke-width="3.125"></path><path d="M38.09375 0h23.8125v4.75h-23.8125Z" fill="#000000" stroke-width="3.125"></path><path d="m33.3125 52.37500000000001 4.78125 0 0 4.78125 4.75 0 0 -14.3125 -9.53125 0 0 9.53125z" fill="#000000" stroke-width="3.125"></path><path d="M19.03125 85.71875h9.53125v4.75H19.03125Z" fill="#000000" stroke-width="3.125"></path><path d="M14.28125 80.9375h4.75v4.78125H14.28125Z" fill="#000000" stroke-width="3.125"></path><path d="m9.53125 71.4375 0 9.5 4.75 0 0 -4.75 4.75 0 0 -4.75 4.78125 0 0 -14.28125 -4.78125 0 0 -4.78125 -4.75 0 0 -4.75 -4.75 0 0 -4.78125 4.75 0 0 -4.75 14.28125 0 0 -4.75 4.75 0 0 -4.78125 4.78125 0 0 4.78125 4.75 0 0 -4.78125 4.78125 0 0 -9.5 -4.78125 0 0 -4.78125 -9.53125 0 0 -4.75 4.78125 0 0 -4.78125 -9.53125 0 0 4.78125 -9.53125 0 0 4.75 -4.75 0 0 4.78125 -4.75 0 0 9.5 -4.78125 0 0 9.53125 -4.75 0 0 23.8125 4.75 0 0 9.53125 4.78125 0z" fill="#000000" stroke-width="3.125"></path></g></svg>