<svg xmlns="http://www.w3.org/2000/svg" viewBox="0 0 100 100" id="Interface-Essential-Iris-Scan--Streamline-Pixel" height="100" width="100"><desc>Interface Essential Iris Scan Streamline Icon: https://streamlinehq.com</desc><title>interface-essential-iris-scan</title><g><path d="M95.25 80.96875H100v14.28125h-4.75Z" fill="#000000" stroke-width="3.125"></path><path d="M95.25 42.875H100v14.28125h-4.75Z" fill="#000000" stroke-width="3.125"></path><path d="M95.25 4.78125H100V19.0625h-4.75Z" fill="#000000" stroke-width="3.125"></path><path d="M90.46875 57.15625h4.78125v4.75h-4.78125Z" fill="#000000" stroke-width="3.125"></path><path d="M90.46875 38.09375h4.78125v4.78125h-4.78125Z" fill="#000000" stroke-width="3.125"></path><path d="M80.96875 0h14.28125v4.78125h-14.28125Z" fill="#000000" stroke-width="3.125"></path><path d="M80.96875 95.25h14.28125V100h-14.28125Z" fill="#000000" stroke-width="3.125"></path><path d="M85.71875 61.90624999999999h4.75v4.78125h-4.75Z" fill="#000000" stroke-width="3.125"></path><path d="M85.71875 33.34375h4.75v4.75h-4.75Z" fill="#000000" stroke-width="3.125"></path><path d="M76.1875 66.6875h9.53125v4.75h-9.53125Z" fill="#000000" stroke-width="3.125"></path><path d="M76.1875 28.59375h9.53125v4.75h-9.53125Z" fill="#000000" stroke-width="3.125"></path><path d="M66.6875 71.4375h9.5v4.75h-9.5Z" fill="#000000" stroke-width="3.125"></path><path d="M66.6875 23.8125h9.5v4.78125h-9.5Z" fill="#000000" stroke-width="3.125"></path><path d="M66.6875 38.09375h-4.78125v-4.75h-4.75V28.59375h-14.28125v4.75h-4.78125v4.75h-4.75v4.78125H28.59375v14.28125h4.75v4.75h4.75v4.78125h4.78125v4.75h14.28125v-4.75h4.75v-4.78125h4.78125v-4.75h4.75v-14.28125h-4.75Zm-9.53125 14.3125h-4.78125v4.75h-4.75v-4.75h-4.75v-4.78125h4.75v-4.75h4.75v4.75h4.78125Z" fill="#000000" stroke-width="3.125"></path><path d="M33.34375 76.1875h33.34375v4.78125H33.34375Z" fill="#000000" stroke-width="3.125"></path><path d="M33.34375 19.0625h33.34375v4.75H33.34375Z" fill="#000000" stroke-width="3.125"></path><path d="M23.8125 71.4375h9.53125v4.75H23.8125Z" fill="#000000" stroke-width="3.125"></path><path d="M23.8125 23.8125h9.53125v4.78125H23.8125Z" fill="#000000" stroke-width="3.125"></path><path d="M14.28125 66.6875h9.53125v4.75H14.28125Z" fill="#000000" stroke-width="3.125"></path><path d="M14.28125 28.59375h9.53125v4.75H14.28125Z" fill="#000000" stroke-width="3.125"></path><path d="M4.78125 95.25H19.0625V100H4.78125Z" fill="#000000" stroke-width="3.125"></path><path d="M9.53125 61.90624999999999h4.75v4.78125H9.53125Z" fill="#000000" stroke-width="3.125"></path><path d="M9.53125 33.34375h4.75v4.75H9.53125Z" fill="#000000" stroke-width="3.125"></path><path d="M4.78125 0H19.0625v4.78125H4.78125Z" fill="#000000" stroke-width="3.125"></path><path d="M4.78125 57.15625h4.75v4.75H4.78125Z" fill="#000000" stroke-width="3.125"></path><path d="M4.78125 38.09375h4.75v4.78125H4.78125Z" fill="#000000" stroke-width="3.125"></path><path d="M0 80.96875h4.78125v14.28125H0Z" fill="#000000" stroke-width="3.125"></path><path d="M0 42.875h4.78125v14.28125H0Z" fill="#000000" stroke-width="3.125"></path><path d="M0 4.78125h4.78125V19.0625H0Z" fill="#000000" stroke-width="3.125"></path></g></svg>