<svg xmlns="http://www.w3.org/2000/svg" viewBox="0 0 100 100" id="Interface-Essential-Text-Format-2--Streamline-Pixel" height="100" width="100"><desc>Interface Essential Text Format 2 Streamline Icon: https://streamlinehq.com</desc><title>interface-essential-text-format-2</title><g><path d="M95.25 19.0625V4.75h-14.28125v4.78125H19.0625V4.75H4.75V19.0625h4.78125v61.90624999999999H4.75v14.28125H19.0625v-4.78125h61.90624999999999v4.78125h14.28125v-14.28125h-4.78125V19.0625Zm-9.53125 61.90624999999999h-4.75v4.75H19.0625v-4.75H14.28125V19.0625H19.0625V14.28125h61.90624999999999V19.0625h4.75Z" fill="#000000" stroke-width="3.125"></path><path d="M66.65625 28.5625h4.78125v9.53125h-4.78125Z" fill="#000000" stroke-width="3.125"></path><path d="m33.34375 23.8125 0 4.75 14.28125 0 0 42.875 -9.53125 0 0 4.75 23.8125 0 0 -4.75 -9.53125 0 0 -42.875 14.28125 0 0 -4.75 -33.3125 0z" fill="#000000" stroke-width="3.125"></path><path d="M28.5625 28.5625h4.78125v9.53125H28.5625Z" fill="#000000" stroke-width="3.125"></path></g></svg>