<svg xmlns="http://www.w3.org/2000/svg" viewBox="0 0 100 100" id="Photography-Photo-Image--Streamline-Pixel" height="100" width="100"><desc>Photography Photo Image Streamline Icon: https://streamlinehq.com</desc><title>photography-photo-image</title><g><path d="m95.25 52.37500000000001 -4.78125 0 0 4.75 4.78125 0 0 23.8125 4.75 0 0 -61.90624999999999 -4.75 0 0 33.34375z" fill="#000000" stroke-width="3.125"></path><path d="M90.46875 80.9375h4.78125v4.78125h-4.78125Z" fill="#000000" stroke-width="3.125"></path><path d="M90.46875 14.28125h4.78125v4.75h-4.78125Z" fill="#000000" stroke-width="3.125"></path><path d="M85.71875 38.09375h4.75v4.75h-4.75Z" fill="#000000" stroke-width="3.125"></path><path d="m42.875 85.71875 0 -4.78125 -9.53125 0 0 4.78125 -23.8125 0 0 4.75 80.9375 0 0 -4.75 -47.59375 0z" fill="#000000" stroke-width="3.125"></path><path d="m80.96875 52.37500000000001 -4.78125 0 0 -4.75 -14.28125 0 0 4.75 -4.75 0 0 4.75 -9.53125 0 0 4.78125 9.53125 0 0 4.75 4.75 0 0 4.75 9.53125 0 0 -4.75 9.53125 0 0 -4.75 9.5 0 0 -4.78125 -9.5 0 0 -4.75z" fill="#000000" stroke-width="3.125"></path><path d="M80.96875 42.84375h4.75v4.78125h-4.75Z" fill="#000000" stroke-width="3.125"></path><path d="M66.6875 33.3125h4.75v9.53125h-4.75Z" fill="#000000" stroke-width="3.125"></path><path d="M52.37500000000001 71.40625h9.53125v4.78125h-9.53125Z" fill="#000000" stroke-width="3.125"></path><path d="M52.37500000000001 42.84375h4.78125v4.78125h-4.78125Z" fill="#000000" stroke-width="3.125"></path><path d="M47.625 38.09375h4.75v4.75h-4.75Z" fill="#000000" stroke-width="3.125"></path><path d="M42.875 76.1875h9.5v4.75h-9.5Z" fill="#000000" stroke-width="3.125"></path><path d="M38.09375 52.37500000000001h9.53125v4.75h-9.53125Z" fill="#000000" stroke-width="3.125"></path><path d="M23.8125 47.625h14.28125v4.75H23.8125Z" fill="#000000" stroke-width="3.125"></path><path d="M14.28125 52.37500000000001h9.53125v4.75H14.28125Z" fill="#000000" stroke-width="3.125"></path><path d="M9.53125 9.53125h80.9375v4.75H9.53125Z" fill="#000000" stroke-width="3.125"></path><path d="M9.53125 57.125h4.75v4.78125H9.53125Z" fill="#000000" stroke-width="3.125"></path><path d="M4.78125 80.9375h4.75v4.78125H4.78125Z" fill="#000000" stroke-width="3.125"></path><path d="M4.78125 14.28125h4.75v4.75H4.78125Z" fill="#000000" stroke-width="3.125"></path><path d="m4.78125 66.65625 4.75 0 0 -4.75 -4.75 0 0 -42.875 -4.78125 0L0 80.9375l4.78125 0 0 -14.28125z" fill="#000000" stroke-width="3.125"></path></g></svg>