<svg xmlns="http://www.w3.org/2000/svg" viewBox="0 0 100 100" id="Social-Rewards-Heart-Like-Circle--Streamline-Pixel" height="100" width="100"><desc>Social Rewards Heart Like Circle Streamline Icon: https://streamlinehq.com</desc><title>social-rewards-heart-like-circle</title><g><path d="M95.21875 38.09375H100v23.8125h-4.78125Z" fill="#000000" stroke-width="3.125"></path><path d="M90.46875 61.90624999999999h4.75v9.53125h-4.75Z" fill="#000000" stroke-width="3.125"></path><path d="M90.46875 28.5625h4.75v9.53125h-4.75Z" fill="#000000" stroke-width="3.125"></path><path d="M85.71875 71.4375h4.75v9.5h-4.75Z" fill="#000000" stroke-width="3.125"></path><path d="M85.71875 19.03125h4.75v9.53125h-4.75Z" fill="#000000" stroke-width="3.125"></path><path d="M80.9375 80.9375h4.78125v4.78125H80.9375Z" fill="#000000" stroke-width="3.125"></path><path d="M80.9375 14.28125h4.78125v4.75H80.9375Z" fill="#000000" stroke-width="3.125"></path><path d="M71.40625 85.71875h9.53125v4.75h-9.53125Z" fill="#000000" stroke-width="3.125"></path><path d="M76.1875 33.34375h-4.78125V28.5625h-14.28125v4.78125h-4.75v4.75h-4.78125v-4.75h-4.75V28.5625H28.5625v4.78125H23.8125v4.75H19.03125v14.28125h4.78125v4.78125h4.75v4.75h4.75v4.75h4.78125v4.78125h4.75v4.75h4.75v4.75h4.78125v-4.75h4.75v-4.75h4.78125v-4.78125h4.75v-4.75h4.75v-4.75h4.78125v-4.78125h4.75v-14.28125h-4.75Zm-4.78125 19.03125h-4.75v-9.53125h-9.53125v-4.75h9.53125v4.75h4.75Z" fill="#000000" stroke-width="3.125"></path><path d="M71.40625 9.53125h9.53125v4.75h-9.53125Z" fill="#000000" stroke-width="3.125"></path><path d="M61.90624999999999 90.46875h9.5v4.78125h-9.5Z" fill="#000000" stroke-width="3.125"></path><path d="M61.90624999999999 4.75h9.5v4.78125h-9.5Z" fill="#000000" stroke-width="3.125"></path><path d="M38.09375 95.25h23.8125V100h-23.8125Z" fill="#000000" stroke-width="3.125"></path><path d="M38.09375 0h23.8125v4.75h-23.8125Z" fill="#000000" stroke-width="3.125"></path><path d="M28.5625 90.46875h9.53125v4.78125H28.5625Z" fill="#000000" stroke-width="3.125"></path><path d="M28.5625 4.75h9.53125v4.78125H28.5625Z" fill="#000000" stroke-width="3.125"></path><path d="M19.03125 85.71875h9.53125v4.75H19.03125Z" fill="#000000" stroke-width="3.125"></path><path d="M19.03125 9.53125h9.53125v4.75H19.03125Z" fill="#000000" stroke-width="3.125"></path><path d="M14.28125 80.9375h4.75v4.78125H14.28125Z" fill="#000000" stroke-width="3.125"></path><path d="M14.28125 14.28125h4.75v4.75H14.28125Z" fill="#000000" stroke-width="3.125"></path><path d="M9.5 71.4375h4.78125v9.5H9.5Z" fill="#000000" stroke-width="3.125"></path><path d="M9.5 19.03125h4.78125v9.53125H9.5Z" fill="#000000" stroke-width="3.125"></path><path d="M4.75 61.90624999999999h4.75v9.53125H4.75Z" fill="#000000" stroke-width="3.125"></path><path d="M4.75 28.5625h4.75v9.53125H4.75Z" fill="#000000" stroke-width="3.125"></path><path d="M0 38.09375h4.75v23.8125H0Z" fill="#000000" stroke-width="3.125"></path></g></svg>