<svg xmlns="http://www.w3.org/2000/svg" viewBox="0 0 100 100" id="Social-Rewards-Rating-Star-1--Streamline-Pixel" height="100" width="100"><desc>Social Rewards Rating Star 1 Streamline Icon: https://streamlinehq.com</desc><title>social-rewards-rating-star-1</title><g><path d="M95.25 38.09375H100v4.75h-4.75Z" fill="#000000" stroke-width="3.125"></path><path d="M90.46875 42.84375h4.78125v4.75h-4.78125Z" fill="#000000" stroke-width="3.125"></path><path d="M85.71875 85.71875h4.75v9.5h-4.75Z" fill="#000000" stroke-width="3.125"></path><path d="M80.9375 76.1875h4.78125v9.53125H80.9375Z" fill="#000000" stroke-width="3.125"></path><path d="M80.9375 47.59375h9.53125v4.78125H80.9375Z" fill="#000000" stroke-width="3.125"></path><path d="M76.1875 95.21875h9.53125V100h-9.53125Z" fill="#000000" stroke-width="3.125"></path><path d="M76.1875 66.65625h4.75v9.53125h-4.75Z" fill="#000000" stroke-width="3.125"></path><path d="M76.1875 52.37500000000001h4.75v4.75h-4.75Z" fill="#000000" stroke-width="3.125"></path><path d="M71.4375 90.46875h4.75v4.75h-4.75Z" fill="#000000" stroke-width="3.125"></path><path d="M71.4375 57.125h4.75v9.53125h-4.75Z" fill="#000000" stroke-width="3.125"></path><path d="M61.90624999999999 85.71875h9.53125v4.75h-9.53125Z" fill="#000000" stroke-width="3.125"></path><path d="M66.65625 33.3125h28.59375v4.78125h-28.59375Z" fill="#000000" stroke-width="3.125"></path><path d="M61.90624999999999 23.8125h4.75v9.5h-4.75Z" fill="#000000" stroke-width="3.125"></path><path d="M57.15625 80.9375h4.75v4.78125h-4.75Z" fill="#000000" stroke-width="3.125"></path><path d="M57.15625 52.37500000000001h4.75v4.75h-4.75Z" fill="#000000" stroke-width="3.125"></path><path d="M57.15625 14.28125h4.75v9.53125h-4.75Z" fill="#000000" stroke-width="3.125"></path><path d="M52.37500000000001 76.1875h4.78125v4.75h-4.78125Z" fill="#000000" stroke-width="3.125"></path><path d="M52.37500000000001 42.84375h4.78125v4.75h-4.78125Z" fill="#000000" stroke-width="3.125"></path><path d="M52.37500000000001 4.75h4.78125v9.53125h-4.78125Z" fill="#000000" stroke-width="3.125"></path><path d="M47.625 71.40625h4.75v4.78125h-4.75Z" fill="#000000" stroke-width="3.125"></path><path d="M42.84375 57.125h14.3125v4.78125h-14.3125Z" fill="#000000" stroke-width="3.125"></path><path d="M47.625 0h4.75v4.75h-4.75Z" fill="#000000" stroke-width="3.125"></path><path d="M42.84375 76.1875h4.78125v4.75h-4.78125Z" fill="#000000" stroke-width="3.125"></path><path d="M42.84375 42.84375h4.78125v4.75h-4.78125Z" fill="#000000" stroke-width="3.125"></path><path d="M42.84375 4.75h4.78125v9.53125h-4.78125Z" fill="#000000" stroke-width="3.125"></path><path d="M38.09375 80.9375h4.75v4.78125h-4.75Z" fill="#000000" stroke-width="3.125"></path><path d="M38.09375 52.37500000000001h4.75v4.75h-4.75Z" fill="#000000" stroke-width="3.125"></path><path d="M38.09375 14.28125h4.75v9.53125h-4.75Z" fill="#000000" stroke-width="3.125"></path><path d="M33.34375 23.8125h4.75v9.5h-4.75Z" fill="#000000" stroke-width="3.125"></path><path d="M28.5625 85.71875h9.53125v4.75H28.5625Z" fill="#000000" stroke-width="3.125"></path><path d="M23.8125 90.46875h4.75v4.75H23.8125Z" fill="#000000" stroke-width="3.125"></path><path d="M23.8125 57.125h4.75v9.53125H23.8125Z" fill="#000000" stroke-width="3.125"></path><path d="M19.0625 66.65625h4.75v9.53125H19.0625Z" fill="#000000" stroke-width="3.125"></path><path d="M19.0625 52.37500000000001h4.75v4.75H19.0625Z" fill="#000000" stroke-width="3.125"></path><path d="M14.28125 95.21875h9.53125V100H14.28125Z" fill="#000000" stroke-width="3.125"></path><path d="M14.28125 76.1875H19.0625v9.53125H14.28125Z" fill="#000000" stroke-width="3.125"></path><path d="M9.53125 47.59375H19.0625v4.78125H9.53125Z" fill="#000000" stroke-width="3.125"></path><path d="M9.53125 85.71875h4.75v9.5H9.53125Z" fill="#000000" stroke-width="3.125"></path><path d="M4.75 33.3125h28.59375v4.78125H4.75Z" fill="#000000" stroke-width="3.125"></path><path d="M4.75 42.84375h4.78125v4.75H4.75Z" fill="#000000" stroke-width="3.125"></path><path d="M0 38.09375h4.75v4.75H0Z" fill="#000000" stroke-width="3.125"></path></g></svg>