<svg xmlns="http://www.w3.org/2000/svg" viewBox="0 0 100 100" id="Ui-Design-Website--Streamline-Pixel" height="100" width="100"><desc>Ui Design Website Streamline Icon: https://streamlinehq.com</desc><title>ui-design-website</title><g><path d="m95.25 23.828125 -90.46875 0 0 -14.28125 -4.78125 0 0 80.9375 4.78125 0 0 -61.90624999999999 90.46875 0 0 61.90624999999999 4.75 0 0 -80.9375 -4.75 0 0 14.28125z" fill="#000000" stroke-width="3.125"></path><path d="M4.78125 90.484375h90.46875v4.75H4.78125Z" fill="#000000" stroke-width="3.125"></path><path d="M80.96875 61.92187500000001h4.75v14.28125h-4.75Z" fill="#000000" stroke-width="3.125"></path><path d="M76.1875 76.203125h4.78125v4.75h-4.78125Z" fill="#000000" stroke-width="3.125"></path><path d="M76.1875 57.140625h4.78125v4.78125h-4.78125Z" fill="#000000" stroke-width="3.125"></path><path d="M61.90624999999999 80.953125h14.28125v4.78125h-14.28125Z" fill="#000000" stroke-width="3.125"></path><path d="m76.1875 57.140625 0 -4.75 -4.75 0 0 -19.03125 -57.15625 0 0 28.5625 9.53125 0 0 -4.78125 -4.75 0 0 -19.03125 47.625 0 0 14.28125 -4.78125 0 0 4.75 14.28125 0z" fill="#000000" stroke-width="3.125"></path><path d="M57.15625 76.203125h4.75v4.75h-4.75Z" fill="#000000" stroke-width="3.125"></path><path d="M57.15625 57.140625h4.75v4.78125h-4.75Z" fill="#000000" stroke-width="3.125"></path><path d="M52.37500000000001 61.92187500000001h4.78125v14.28125h-4.78125Z" fill="#000000" stroke-width="3.125"></path><path d="M28.5625 14.296875h4.78125v4.75H28.5625Z" fill="#000000" stroke-width="3.125"></path><path d="m19.0625 66.671875 0 4.78125 -4.78125 0 0 4.75 33.34375 0 0 -14.28125 -4.75 0 0 -4.78125 -4.78125 0 0 -4.75 -4.75 0 0 4.75 -4.78125 0 0 4.78125 -4.75 0 0 4.75 -4.75 0z" fill="#000000" stroke-width="3.125"></path><path d="M19.0625 14.296875h4.75v4.75H19.0625Z" fill="#000000" stroke-width="3.125"></path><path d="M9.53125 14.296875h4.75v4.75H9.53125Z" fill="#000000" stroke-width="3.125"></path><path d="M4.78125 4.765625h90.46875v4.78125H4.78125Z" fill="#000000" stroke-width="3.125"></path></g></svg>